<svg width="38" height="38" viewBox="0 0 38 38" fill="none" xmlns="http://www.w3.org/2000/svg">
<g clip-path="url(#clip0_85_1671)">
<path d="M19.0001 38C22.7579 38 26.4314 36.8857 29.5559 34.7979C32.6804 32.7102 35.1157 29.7428 36.5538 26.271C37.9918 22.7992 38.3681 18.9789 37.635 15.2933C36.9019 11.6077 35.0923 8.22218 32.4351 5.56498C29.7779 2.90778 26.3924 1.09821 22.7068 0.365088C19.0211 -0.368031 15.2009 0.00823232 11.7291 1.4463C8.25728 2.88436 5.28988 5.31964 3.20214 8.44417C1.11439 11.5687 5.75232e-05 15.2422 5.75232e-05 19C-0.00609376 21.4969 0.481157 23.9703 1.43382 26.2783C2.38648 28.5862 3.78577 30.6832 5.55131 32.4488C7.31685 34.2143 9.41384 35.6136 11.7218 36.5662C14.0298 37.5189 16.5032 38.0062 19.0001 38Z" fill="#2775CA"/>
<path d="M24.2253 22.0089C24.2253 19.2452 22.5637 18.2866 19.2387 17.8911C16.862 17.575 16.3887 16.9411 16.3887 15.8339C16.3887 14.7267 17.1798 14.0116 18.762 14.0116C20.1887 14.0116 20.9798 14.4866 21.3753 15.675C21.4178 15.7895 21.4944 15.8882 21.5948 15.9577C21.6952 16.0272 21.8146 16.0642 21.9367 16.0636H23.2028C23.2761 16.0655 23.3491 16.0525 23.4172 16.0253C23.4853 15.9981 23.5472 15.9573 23.5991 15.9054C23.6509 15.8536 23.6917 15.7917 23.7189 15.7236C23.7461 15.6554 23.7591 15.5825 23.7572 15.5092V15.4314C23.6043 14.5734 23.1722 13.7899 22.5281 13.2027C21.8841 12.6155 21.0641 12.2574 20.1956 12.1842V10.2842C20.1956 9.96807 19.9572 9.73143 19.5617 9.65198H18.3733C18.0572 9.65198 17.8206 9.88861 17.7411 10.2842V12.1116C15.3592 12.4363 13.8548 14.0116 13.8548 15.9911C13.8548 18.6044 15.4387 19.6339 18.7637 20.0294C20.9798 20.425 21.7001 20.8931 21.7001 22.1661C21.7001 23.4391 20.5929 24.3044 19.0884 24.3044C17.0295 24.3044 16.3248 23.4408 16.0795 22.2455C16.0569 22.112 15.9881 21.9906 15.8852 21.9026C15.7824 21.8145 15.6518 21.7653 15.5164 21.7636H14.164C14.0907 21.762 14.0179 21.7752 13.9498 21.8025C13.8818 21.8297 13.82 21.8705 13.7682 21.9223C13.7164 21.9741 13.6756 22.0359 13.6484 22.1039C13.6211 22.172 13.6079 22.2448 13.6095 22.3181V22.3975C13.9273 24.377 15.1934 25.802 17.8068 26.1975V28.0975C17.8068 28.4136 18.0434 28.652 18.439 28.7314H19.6273C19.9434 28.7314 20.1818 28.4931 20.2595 28.0975V26.1975C22.6345 25.802 24.2184 24.1386 24.2184 22.002L24.2253 22.0089Z" fill="white"/>
<path d="M14.962 30.3206C12.6842 29.4851 10.7177 27.9703 9.32852 25.9811C7.93933 23.9919 7.19438 21.6241 7.19438 19.1978C7.19438 16.7715 7.93933 14.4037 9.32852 12.4145C10.7177 10.4253 12.6842 8.91055 14.962 8.07505C15.114 8.00931 15.2417 7.89772 15.3272 7.75589C15.4126 7.61405 15.4517 7.44905 15.4388 7.28396V6.17505C15.4494 6.02959 15.407 5.8852 15.3194 5.76864C15.2317 5.65208 15.1048 5.57125 14.962 5.54114C14.8506 5.52951 14.7387 5.55766 14.646 5.62059C11.7638 6.53665 9.24802 8.34609 7.46261 10.787C5.6772 13.2279 4.71484 16.1736 4.71484 19.1978C4.71484 22.222 5.6772 25.1677 7.46261 27.6086C9.24802 30.0496 11.7638 31.859 14.646 32.775C14.7118 32.8133 14.7857 32.8354 14.8617 32.8395C14.9377 32.8437 15.0137 32.8298 15.0833 32.7989C15.1529 32.7681 15.2142 32.7212 15.2621 32.6621C15.3101 32.603 15.3434 32.5334 15.3593 32.459C15.4388 32.3795 15.4388 32.3 15.4388 32.1411V31.034C15.4388 30.7956 15.2004 30.4795 14.962 30.3206ZM23.3549 5.62059C23.2889 5.58235 23.2149 5.5603 23.1387 5.55625C23.0626 5.5522 22.9866 5.56626 22.917 5.59728C22.8474 5.6283 22.7861 5.6754 22.7382 5.7347C22.6903 5.794 22.6572 5.86381 22.6415 5.93841C22.5638 6.01614 22.5638 6.09559 22.5638 6.2545V7.36168C22.5771 7.52134 22.6269 7.67582 22.7092 7.81326C22.7915 7.95069 22.9043 8.06743 23.0388 8.1545C25.3167 8.99001 27.2831 10.5047 28.6723 12.494C30.0615 14.4832 30.8064 16.851 30.8064 19.2773C30.8064 21.7036 30.0615 24.0713 28.6723 26.0606C27.2831 28.0498 25.3167 29.5645 23.0388 30.4C22.8869 30.4658 22.7595 30.5775 22.6743 30.7194C22.5891 30.8612 22.5505 31.0262 22.5638 31.1911V32.3C22.553 32.4453 22.5952 32.5894 22.6825 32.706C22.7699 32.8225 22.8964 32.9035 23.0388 32.934C23.1502 32.9456 23.2622 32.9174 23.3549 32.8545C26.2359 31.9258 28.7481 30.1072 30.5301 27.6604C32.3122 25.2135 33.2722 22.2645 33.2722 19.2375C33.2722 16.2106 32.3122 13.2616 30.5301 10.8147C28.7481 8.36789 26.2359 6.54932 23.3549 5.62059Z" fill="white"/>
</g>
<defs>
<clipPath id="clip0_85_1671">
<rect width="38" height="38" fill="white"/>
</clipPath>
</defs>
</svg>
