<svg width="19" height="19" viewBox="0 0 19 19" fill="none" xmlns="http://www.w3.org/2000/svg">
<path d="M0 6.75556C0 4.39089 0 3.20856 0.460195 2.30537C0.864993 1.51091 1.51091 0.864993 2.30537 0.460195C3.20856 0 4.39089 0 6.75556 0H12.2444C14.6091 0 15.7914 0 16.6946 0.460195C17.4891 0.864993 18.135 1.51091 18.5398 2.30537C19 3.20856 19 4.39089 19 6.75556V12.2444C19 14.6091 19 15.7914 18.5398 16.6946C18.135 17.4891 17.4891 18.135 16.6946 18.5398C15.7914 19 14.6091 19 12.2444 19H6.75556C4.39089 19 3.20856 19 2.30537 18.5398C1.51091 18.135 0.864993 17.4891 0.460195 16.6946C0 15.7914 0 14.6091 0 12.2444V6.75556Z" fill="white"/>
</svg>
