<svg width="21" height="18" viewBox="0 0 21 18" fill="none" xmlns="http://www.w3.org/2000/svg">
<path d="M6.59156 17.25C4.16531 17.25 1.90363 16.5443 0 15.3267C1.61624 15.4313 4.46855 15.1808 6.24268 13.4886C3.57381 13.3661 2.3702 11.3192 2.2132 10.4445C2.43997 10.5319 3.52148 10.6369 4.132 10.392C1.06192 9.62221 0.590946 6.92799 0.695608 6.10573C1.27125 6.50811 2.24809 6.64807 2.63185 6.61308C-0.228905 4.56618 0.800269 1.48707 1.30613 0.822262C3.35912 3.6665 6.4359 5.26393 10.2423 5.35278C10.1705 5.03802 10.1326 4.71032 10.1326 4.37373C10.1326 1.95819 12.0851 0 14.4935 0C15.7519 0 16.8858 0.534565 17.6818 1.38963C18.5227 1.19258 19.7882 0.731301 20.4069 0.332404C20.0951 1.45208 19.1242 2.38612 18.5369 2.73231C18.5321 2.72048 18.5418 2.74408 18.5369 2.73231C19.0528 2.65428 20.4486 2.38603 21 2.01192C20.7273 2.64094 19.698 3.6868 18.8533 4.27232C19.0105 11.2035 13.7074 17.25 6.59156 17.25Z" fill="#47ACDF"/>
</svg>
