<svg width="21" height="21" viewBox="0 0 21 21" fill="none" xmlns="http://www.w3.org/2000/svg">
<circle cx="10.5" cy="10.5" r="9.1875" fill="#FFFA37"/>
<path fill-rule="evenodd" clip-rule="evenodd" d="M13.798 5.37174C13.1644 4.57327 12.1191 3.9375 10.5077 3.9375C9.12785 3.95109 6.36811 4.7148 6.36811 7.66091C6.36811 8.09118 6.40216 8.66741 6.43193 9.09177C6.39685 9.08158 6.35373 9.0625 6.2854 9.02974L6.2759 9.02519C6.15507 8.96717 5.97133 8.87895 5.71581 8.87895C5.45767 8.87895 5.20807 8.98007 5.02278 9.12999C4.83859 9.27901 4.68125 9.50807 4.68125 9.78504C4.68125 10.1314 4.87621 10.3614 5.10417 10.5089C5.30665 10.6398 5.56197 10.7235 5.76408 10.7897L5.78407 10.7963C6.00041 10.8672 6.15897 10.9213 6.2683 10.9895C6.35339 11.0425 6.36631 11.0761 6.36791 11.1079C6.3668 11.1125 6.3642 11.1223 6.35853 11.1382C6.34687 11.1709 6.32746 11.2152 6.29909 11.2706C6.24251 11.3812 6.16001 11.5171 6.06185 11.662C5.86385 11.9543 5.62221 12.2542 5.4417 12.4278C5.26366 12.5991 4.9715 12.8119 4.66604 12.9813C4.51456 13.0654 4.36643 13.135 4.23391 13.1828C4.09711 13.2322 3.99687 13.251 3.93493 13.251C3.88589 13.251 3.84345 13.261 3.82493 13.2657C3.7989 13.2722 3.77196 13.2808 3.7453 13.2908C3.69244 13.3107 3.62943 13.3405 3.56702 13.3825C3.44778 13.4627 3.28125 13.6245 3.28125 13.8798C3.28125 14.0131 3.31253 14.1258 3.36659 14.2237C3.41392 14.3093 3.47476 14.3743 3.50978 14.4118L3.51497 14.4173L3.52466 14.4277C3.71723 14.6349 4.03599 14.7791 4.34544 14.878C4.61133 14.9629 4.90862 15.0263 5.1983 15.0643C5.20239 15.083 5.20667 15.1031 5.21135 15.1251L5.21285 15.1322C5.23109 15.2183 5.25525 15.3322 5.29082 15.4372C5.32439 15.5363 5.38518 15.6829 5.50964 15.7872C5.66814 15.9202 5.87546 15.9336 6.01073 15.9331C6.15593 15.9325 6.32547 15.9121 6.48634 15.8927L6.50003 15.891C6.72639 15.8637 6.96319 15.8356 7.20845 15.8356C7.65604 15.8356 7.94291 16.0226 8.39306 16.33L8.3961 16.332C8.552 16.4385 8.72658 16.5577 8.92501 16.675C9.58925 17.0675 10.1289 17.0641 10.4348 17.0622C10.455 17.0621 10.4742 17.0619 10.4923 17.0619C10.5104 17.0619 10.5296 17.0621 10.55 17.0622C10.8563 17.0642 11.4104 17.0677 12.075 16.675C12.2734 16.5577 12.448 16.4385 12.6039 16.332L12.6069 16.33C13.0571 16.0226 13.344 15.8356 13.7915 15.8356C14.0368 15.8356 14.2736 15.8637 14.5 15.891L14.5137 15.8927C14.6745 15.9121 14.8441 15.9325 14.9893 15.9331C15.1245 15.9336 15.3319 15.9202 15.4904 15.7872C15.6148 15.6829 15.6756 15.5363 15.7092 15.4372C15.7447 15.3322 15.7689 15.2183 15.7871 15.1323L15.7887 15.1251C15.7933 15.1031 15.7976 15.083 15.8017 15.0643C16.0914 15.0263 16.3887 14.9629 16.6546 14.878C16.964 14.7791 17.2828 14.6349 17.4754 14.4277L17.485 14.4173L17.4902 14.4118C17.5252 14.3744 17.5861 14.3094 17.6334 14.2237C17.6875 14.1258 17.7188 14.0131 17.7188 13.8798C17.7188 13.6245 17.5522 13.4627 17.433 13.3825C17.3706 13.3405 17.3076 13.3107 17.2547 13.2908C17.228 13.2808 17.2011 13.2722 17.1751 13.2657C17.1565 13.261 17.1141 13.251 17.0651 13.251C17.0031 13.251 16.9029 13.2322 16.7661 13.1828C16.6336 13.135 16.4854 13.0654 16.334 12.9813C16.0285 12.8119 15.7363 12.5991 15.5583 12.4278C15.3778 12.2542 15.1362 11.9543 14.9381 11.662C14.84 11.5171 14.7575 11.3812 14.7009 11.2706C14.6725 11.2152 14.6531 11.1709 14.6415 11.1382C14.6358 11.1223 14.6332 11.1125 14.6321 11.1079C14.6337 11.0761 14.6466 11.0425 14.7317 10.9895C14.841 10.9213 14.9996 10.8672 15.2159 10.7963L15.2359 10.7897C15.438 10.7235 15.6934 10.6398 15.8958 10.5089C16.1238 10.3614 16.3188 10.1314 16.3188 9.78504C16.3188 9.50807 16.1614 9.27901 15.9772 9.12999C15.7919 8.98007 15.5423 8.87895 15.2842 8.87895C15.0287 8.87895 14.8449 8.96717 14.7241 9.02518L14.7146 9.02974C14.6463 9.0625 14.6032 9.08158 14.5681 9.09177C14.5978 8.66741 14.6319 8.09118 14.6319 7.66091C14.6319 7.0768 14.4195 6.155 13.798 5.37174ZM7.73275 5.75711C7.20704 6.41516 7.02693 7.19654 7.02693 7.66091C7.02693 8.09148 7.0634 8.68962 7.09418 9.11851C7.1044 9.26096 7.0752 9.427 6.9508 9.55881C6.82488 9.69223 6.65358 9.73553 6.50055 9.73553C6.27959 9.73553 6.11153 9.65469 6.00402 9.60297L5.99154 9.59698C5.87159 9.53947 5.80852 9.51272 5.71581 9.51272C5.63147 9.51272 5.52849 9.54896 5.44684 9.61502C5.36407 9.68199 5.34007 9.74754 5.34007 9.78504C5.34007 9.8614 5.36825 9.91597 5.47178 9.98294C5.59405 10.062 5.76828 10.1215 5.99668 10.1964L6.01656 10.2029C6.20623 10.2651 6.44116 10.342 6.62656 10.4576C6.83466 10.5873 7.02693 10.7958 7.02693 11.117C7.02693 11.2012 7.00365 11.2822 6.9818 11.3436C6.95808 11.4102 6.92604 11.4805 6.89013 11.5507C6.81816 11.6912 6.72083 11.85 6.61386 12.0079C6.40161 12.3213 6.13181 12.6602 5.90756 12.8759C5.68086 13.094 5.33993 13.3392 4.9951 13.5304C4.82144 13.6267 4.64014 13.7131 4.46531 13.7762C4.30881 13.8327 4.14015 13.8769 3.97835 13.8838C3.97431 13.8855 3.96986 13.8875 3.96519 13.8899C3.95773 13.8936 3.95075 13.8977 3.94467 13.9018L3.94155 13.9039C3.94216 13.9083 3.94286 13.9115 3.94344 13.9138C3.94474 13.9189 3.94627 13.9225 3.94834 13.9262C3.95469 13.9377 3.96469 13.9505 4.00516 13.9939L4.01578 14.0053C4.08869 14.0837 4.26836 14.1855 4.55316 14.2765C4.82441 14.3632 5.14515 14.4258 5.44819 14.4546C5.59981 14.4689 5.6872 14.5637 5.72419 14.6147C5.76226 14.6673 5.78404 14.7228 5.79676 14.7596C5.82138 14.8309 5.83997 14.9186 5.85463 14.9879L5.85686 14.9984C5.87689 15.0928 5.8944 15.1735 5.91724 15.2409C5.92531 15.2647 5.93277 15.2829 5.93918 15.2962C5.95363 15.2979 5.97581 15.2995 6.00792 15.2993C6.14726 15.2988 6.28677 15.278 6.42483 15.2613C6.64571 15.2347 6.91905 15.2018 7.20845 15.2018C7.87966 15.2018 8.32256 15.5044 8.75041 15.7968L8.77443 15.8132C8.93275 15.9213 9.09141 16.0295 9.26985 16.135C9.77268 16.4321 10.1553 16.43 10.4348 16.4284C10.4545 16.4283 10.4736 16.4282 10.4923 16.4282C10.5108 16.4282 10.5298 16.4283 10.5494 16.4284C10.832 16.4299 11.2274 16.432 11.7302 16.135C11.9086 16.0295 12.0672 15.9213 12.2256 15.8132L12.2496 15.7968C12.6774 15.5044 13.1203 15.2018 13.7915 15.2018C14.081 15.2018 14.3543 15.2347 14.5752 15.2613L14.5818 15.2622C14.7605 15.2837 14.8912 15.2989 14.9921 15.2993C15.0242 15.2995 15.0464 15.2979 15.0608 15.2962C15.0672 15.2829 15.0747 15.2647 15.0828 15.2409C15.1056 15.1735 15.1231 15.0928 15.1431 14.9984L15.1454 14.9879C15.16 14.9186 15.1786 14.8309 15.2032 14.7596C15.216 14.7228 15.2377 14.6673 15.2758 14.6147C15.3128 14.5637 15.4002 14.4689 15.5518 14.4546C15.8548 14.4258 16.1756 14.3632 16.4468 14.2765C16.7316 14.1855 16.9113 14.0837 16.9842 14.0053L16.9948 13.9939C17.0353 13.9505 17.0453 13.9377 17.0517 13.9262C17.0537 13.9225 17.0553 13.9189 17.0566 13.9138C17.0571 13.9115 17.0578 13.9083 17.0584 13.9039L17.0553 13.9018C17.0492 13.8977 17.0423 13.8936 17.0348 13.8899C17.0301 13.8875 17.0257 13.8855 17.0217 13.8838C16.8599 13.8769 16.6912 13.8327 16.5347 13.7762C16.3599 13.7131 16.1786 13.6267 16.0049 13.5304C15.6601 13.3392 15.3191 13.094 15.0924 12.8759C14.8682 12.6602 14.5984 12.3213 14.3861 12.0079C14.2792 11.85 14.1818 11.6912 14.1099 11.5507C14.074 11.4805 14.0419 11.4102 14.0182 11.3436C13.9963 11.2822 13.9731 11.2012 13.9731 11.117C13.9731 10.7958 14.1653 10.5873 14.3734 10.4576C14.5588 10.342 14.7938 10.2651 14.9834 10.2029L15.0033 10.1964C15.2317 10.1215 15.4059 10.062 15.5282 9.98294C15.6318 9.91597 15.6599 9.8614 15.6599 9.78504C15.6599 9.74754 15.6359 9.68199 15.5532 9.61502C15.4715 9.54896 15.3685 9.51272 15.2842 9.51272C15.1915 9.51272 15.1284 9.53947 15.0085 9.59698L14.996 9.60298C14.8885 9.65469 14.7204 9.73553 14.4994 9.73553C14.3464 9.73553 14.1751 9.69223 14.0492 9.55881C13.9248 9.427 13.8956 9.26096 13.9058 9.11851C13.9366 8.68962 13.9731 8.09148 13.9731 7.66091C13.9731 7.19534 13.7961 6.41387 13.2743 5.75629C12.7646 5.11392 11.9125 4.57127 10.5077 4.57127C9.10282 4.57127 8.24645 5.11408 7.73275 5.75711Z" fill="black"/>
<path fill-rule="evenodd" clip-rule="evenodd" d="M7.73284 5.75713C7.20714 6.41518 7.02703 7.19656 7.02703 7.66093C7.02703 8.09149 7.0635 8.68963 7.09428 9.11853C7.1045 9.26098 7.07529 9.42702 6.9509 9.55883C6.82498 9.69224 6.65368 9.73555 6.50065 9.73555C6.27968 9.73555 6.11162 9.65471 6.00412 9.60299L5.99163 9.59699C5.87168 9.53949 5.80862 9.51274 5.71591 9.51274C5.63156 9.51274 5.52859 9.54898 5.44693 9.61504C5.36416 9.68201 5.34017 9.74755 5.34017 9.78506C5.34017 9.86142 5.36834 9.91599 5.47187 9.98295C5.59415 10.062 5.76838 10.1215 5.99677 10.1964L6.01666 10.2029C6.20633 10.2651 6.44126 10.342 6.62665 10.4576C6.83476 10.5873 7.02703 10.7958 7.02703 11.117C7.02703 11.2012 7.00375 11.2822 6.9819 11.3436C6.95818 11.4102 6.92614 11.4805 6.89023 11.5507C6.81826 11.6912 6.72093 11.85 6.61395 12.008C6.4017 12.3213 6.1319 12.6602 5.90766 12.876C5.68096 13.094 5.34003 13.3392 4.9952 13.5304C4.82154 13.6267 4.64023 13.7131 4.4654 13.7762C4.30891 13.8327 4.14024 13.8769 3.97844 13.8838C3.97441 13.8855 3.96995 13.8875 3.96529 13.8899C3.95783 13.8937 3.95085 13.8977 3.94477 13.9018L3.94165 13.904C3.94226 13.9083 3.94296 13.9115 3.94354 13.9138C3.94484 13.9189 3.94637 13.9225 3.94844 13.9262C3.95478 13.9377 3.96479 13.9505 4.00526 13.9939L4.01588 14.0053C4.08878 14.0837 4.26845 14.1855 4.55326 14.2765C4.8245 14.3632 5.14525 14.4258 5.44829 14.4546C5.59991 14.469 5.6873 14.5637 5.72429 14.6147C5.76236 14.6673 5.78413 14.7228 5.79686 14.7596C5.82147 14.8309 5.84007 14.9187 5.85473 14.9879L5.85696 14.9984C5.87698 15.0928 5.8945 15.1735 5.91734 15.2409C5.92541 15.2648 5.93286 15.2829 5.93927 15.2962C5.95373 15.2979 5.9759 15.2995 6.00802 15.2993C6.14736 15.2988 6.28687 15.278 6.42493 15.2614C6.64581 15.2347 6.91915 15.2018 7.20855 15.2018C7.87976 15.2018 8.32266 15.5044 8.7505 15.7968L8.77452 15.8132C8.93285 15.9213 9.09151 16.0295 9.26994 16.135C9.77278 16.4321 10.1554 16.43 10.4349 16.4284C10.4546 16.4283 10.4737 16.4282 10.4924 16.4282C10.5109 16.4282 10.5299 16.4283 10.5495 16.4284C10.8321 16.4299 11.2275 16.4321 11.7303 16.135C11.9087 16.0295 12.0673 15.9213 12.2257 15.8132L12.2497 15.7968C12.6775 15.5044 13.1204 15.2018 13.7916 15.2018C14.081 15.2018 14.3544 15.2347 14.5753 15.2614L14.5819 15.2622C14.7606 15.2837 14.8913 15.2989 14.9922 15.2993C15.0243 15.2995 15.0465 15.2979 15.0609 15.2962C15.0673 15.2829 15.0748 15.2648 15.0829 15.2409C15.1057 15.1735 15.1232 15.0928 15.1432 14.9984L15.1455 14.9879C15.1601 14.9186 15.1787 14.8309 15.2033 14.7596C15.2161 14.7228 15.2378 14.6673 15.2759 14.6147C15.3129 14.5637 15.4003 14.469 15.5519 14.4546C15.8549 14.4258 16.1757 14.3632 16.4469 14.2765C16.7317 14.1855 16.9114 14.0837 16.9843 14.0053L16.9949 13.9939C17.0354 13.9505 17.0454 13.9377 17.0518 13.9262C17.0538 13.9225 17.0554 13.9189 17.0567 13.9138C17.0572 13.9115 17.0579 13.9083 17.0585 13.904L17.0554 13.9018C17.0493 13.8977 17.0424 13.8937 17.0349 13.8899C17.0302 13.8875 17.0258 13.8855 17.0218 13.8838C16.86 13.8769 16.6913 13.8327 16.5348 13.7762C16.36 13.7131 16.1787 13.6267 16.005 13.5304C15.6602 13.3392 15.3192 13.094 15.0925 12.876C14.8683 12.6602 14.5985 12.3213 14.3862 12.008C14.2793 11.85 14.1819 11.6912 14.11 11.5507C14.0741 11.4805 14.042 11.4102 14.0183 11.3436C13.9964 11.2822 13.9732 11.2012 13.9732 11.117C13.9732 10.7958 14.1654 10.5873 14.3735 10.4576C14.5589 10.342 14.7939 10.2651 14.9835 10.2029L15.0034 10.1964C15.2318 10.1215 15.406 10.062 15.5283 9.98295C15.6319 9.91599 15.66 9.86142 15.66 9.78506C15.66 9.74755 15.636 9.68201 15.5533 9.61504C15.4716 9.54898 15.3686 9.51274 15.2843 9.51274C15.1916 9.51274 15.1285 9.53949 15.0086 9.59699L14.9961 9.60299C14.8886 9.65471 14.7205 9.73555 14.4995 9.73555C14.3465 9.73555 14.1752 9.69224 14.0493 9.55883C13.9249 9.42702 13.8957 9.26098 13.9059 9.11853C13.9367 8.68963 13.9732 8.09149 13.9732 7.66093C13.9732 7.19535 13.7962 6.41389 13.2744 5.75631C12.7647 5.11394 11.9126 4.57129 10.5078 4.57129C9.10291 4.57129 8.24654 5.1141 7.73284 5.75713Z" fill="white"/>
</svg>
