<svg width="50" height="50" viewBox="0 0 50 50" fill="none" xmlns="http://www.w3.org/2000/svg">
<g clip-path="url(#clip0_182_1654)">
<path d="M25.5 44C35.9934 44 44.5 35.4934 44.5 25C44.5 14.5066 35.9934 6 25.5 6C15.0066 6 6.5 14.5066 6.5 25C6.5 35.4934 15.0066 44 25.5 44Z" fill="#2A5ADA"/>
<path d="M25.5 13.125L23.3637 14.3778L17.5438 17.8097L15.4062 19.0625V30.9375L17.5426 32.1903L23.4171 35.6222L25.5534 36.875L27.6897 35.6222L33.4574 32.1903L35.5938 30.9375V19.0625L33.4574 17.8097L27.6363 14.3778L25.5 13.125ZM19.6789 28.4319V21.5681L25.5 18.1363L31.3211 21.5681V28.4319L25.5 31.8638L19.6789 28.4319Z" fill="white"/>
</g>
<defs>
<clipPath id="clip0_182_1654">
<rect width="38" height="38" fill="white" transform="translate(6.5 6)"/>
</clipPath>
</defs>
</svg>
