<svg width="21" height="23" viewBox="0 0 21 23" fill="none" xmlns="http://www.w3.org/2000/svg">
<path d="M10.5 21.6094C16.0228 21.6094 20.5 17.1322 20.5 11.6094C20.5 6.08653 16.0228 1.60938 10.5 1.60938C4.97715 1.60938 0.5 6.08653 0.5 11.6094C0.5 17.1322 4.97715 21.6094 10.5 21.6094Z" fill="#E84142" stroke="white"/>
<path fill-rule="evenodd" clip-rule="evenodd" d="M5.44799 17.1094C5.06558 17.1094 4.82472 16.6975 5.01221 16.3642L10.6161 6.40172C10.8039 6.06793 11.2818 6.0605 11.4799 6.38829L13.5305 9.78251C13.627 9.94213 13.6266 10.1422 13.5295 10.3014L9.52442 16.8697C9.43365 17.0185 9.27188 17.1094 9.09752 17.1094H5.44799ZM13.1307 16.3568C12.9356 16.6901 13.176 17.1094 13.5622 17.1094H17.0709C17.4602 17.1094 17.7002 16.684 17.4989 16.3508L15.7168 13.4012C15.5207 13.0766 15.0489 13.0799 14.8573 13.4071L13.1307 16.3568Z" fill="white"/>
</svg>
