<svg width="36" height="36" viewBox="0 0 36 36" fill="none" xmlns="http://www.w3.org/2000/svg">
<path d="M14.25 13.5H14.265M21.75 13.5H21.765M14.25 19.5C14.7388 19.9989 15.3223 20.3952 15.9662 20.6658C16.6101 20.9364 17.3015 21.0758 18 21.0758C18.6985 21.0758 19.3899 20.9364 20.0338 20.6658C20.6777 20.3952 21.2612 19.9989 21.75 19.5M6 31.5V12C6 10.8065 6.47411 9.66193 7.31802 8.81802C8.16193 7.97411 9.30653 7.5 10.5 7.5H25.5C26.6935 7.5 27.8381 7.97411 28.682 8.81802C29.5259 9.66193 30 10.8065 30 12V21C30 22.1935 29.5259 23.3381 28.682 24.182C27.8381 25.0259 26.6935 25.5 25.5 25.5H12L6 31.5Z" stroke="#031811" stroke-width="2" stroke-linecap="round" stroke-linejoin="round"/>
</svg>
