<svg width="27" height="24" viewBox="0 0 27 24" fill="none" xmlns="http://www.w3.org/2000/svg">
<path fill-rule="evenodd" clip-rule="evenodd" d="M1.01956 23.4312C0.240906 23.4312 -0.249515 22.5927 0.132229 21.914L12.167 0.518958C12.5493 -0.160697 13.5224 -0.175826 13.9257 0.491617L18.3573 7.82675C18.5537 8.15176 18.5529 8.55903 18.3552 8.88323L9.78203 22.9432C9.5972 23.2463 9.26782 23.4312 8.9128 23.4312H1.01956ZM17.4459 21.8988C17.0486 22.5776 17.5381 23.4312 18.3245 23.4312H25.9805C26.7732 23.4312 27.2618 22.5652 26.8519 21.8867L22.9634 15.4506C22.5642 14.7898 21.6034 14.7965 21.2134 15.4628L17.4459 21.8988Z" fill="white"/>
</svg>
