<svg width="23" height="22" viewBox="0 0 23 22" fill="none" xmlns="http://www.w3.org/2000/svg">
<path fill-rule="evenodd" clip-rule="evenodd" d="M13.8387 11.3882V11.3858C13.7078 11.3953 13.0326 11.4358 11.5263 11.4358C10.3237 11.4358 9.47706 11.4001 9.17938 11.3858V11.3894C4.5498 11.1858 1.09429 10.3796 1.09429 9.41515C1.09429 8.45184 4.5498 7.64571 9.17938 7.43853V10.5868C9.48183 10.6083 10.3487 10.6595 11.5466 10.6595C12.9838 10.6595 13.7042 10.5999 13.8387 10.588V7.44091C18.4588 7.6469 21.906 8.45303 21.906 9.41515C21.906 10.3796 18.4588 11.1834 13.8387 11.3882ZM13.8387 7.11346V4.29617H20.2854V0H2.73274V4.29617H9.17938V7.11226C3.94014 7.35279 0 8.39111 0 9.63424C0 10.8774 3.94014 11.9145 9.17938 12.1562V21.1844H13.8387V12.1538C19.0696 11.9133 23.0002 10.8762 23.0002 9.63424C23.0002 8.3923 19.0696 7.35517 13.8387 7.11346Z" fill="white"/>
</svg>
