<svg width="40" height="40" viewBox="0 0 40 40" fill="none" xmlns="http://www.w3.org/2000/svg">
<path d="M13.3335 15H11.6668C10.7828 15 9.93493 15.3512 9.30981 15.9763C8.68469 16.6014 8.3335 17.4493 8.3335 18.3333V31.6667C8.3335 32.5507 8.68469 33.3986 9.30981 34.0237C9.93493 34.6488 10.7828 35 11.6668 35H28.3335C29.2176 35 30.0654 34.6488 30.6905 34.0237C31.3156 33.3986 31.6668 32.5507 31.6668 31.6667V18.3333C31.6668 17.4493 31.3156 16.6014 30.6905 15.9763C30.0654 15.3512 29.2176 15 28.3335 15H26.6668M20.0002 23.3333V5M20.0002 5L15.0002 10M20.0002 5L25.0002 10" stroke="#031811" stroke-width="2" stroke-linecap="round" stroke-linejoin="round"/>
</svg>
