<svg width="21" height="21" viewBox="0 0 21 21" fill="none" xmlns="http://www.w3.org/2000/svg">
<path d="M1.47296 6.52385C1.55731 5.22528 2.60134 4.20759 3.90106 4.1432C5.78313 4.04996 8.47315 3.9375 10.5 3.9375C12.5268 3.9375 15.2169 4.04996 17.0989 4.1432C18.3987 4.20759 19.4427 5.22528 19.527 6.52385C19.6079 7.76798 19.6875 9.29884 19.6875 10.5C19.6875 11.7012 19.6079 13.232 19.527 14.4761C19.4427 15.7747 18.3987 16.7924 17.0989 16.8568C15.2169 16.95 12.5268 17.0625 10.5 17.0625C8.47315 17.0625 5.78313 16.95 3.90106 16.8568C2.60134 16.7924 1.55731 15.7747 1.47296 14.4761C1.39215 13.232 1.3125 11.7012 1.3125 10.5C1.3125 9.29884 1.39215 7.76798 1.47296 6.52385Z" fill="#FC0D1B"/>
<path d="M8.53125 7.875V13.125L13.7812 10.5L8.53125 7.875Z" fill="white"/>
</svg>
