<svg width="21" height="21" viewBox="0 0 21 21" fill="none" xmlns="http://www.w3.org/2000/svg">
<path d="M5.54588 12.989C5.64843 12.1399 5.99668 11.6645 6.65295 11.1771C7.59195 10.5171 8.7649 10.8904 8.7649 10.8904V8.67547C9.05006 8.66819 9.33533 8.68509 9.61737 8.72599V11.5764C9.61737 11.5764 8.44478 11.203 7.50578 11.8634C6.84987 12.3504 6.5009 12.8262 6.39871 13.6753C6.3955 14.1364 6.48203 14.7391 6.88049 15.2603C6.78197 15.2098 6.68156 15.1522 6.57924 15.0876C5.70149 14.4982 5.5416 13.6139 5.54588 12.989ZM14.4605 4.58003C13.8146 3.8722 13.5703 3.15755 13.482 2.65552H14.2946C14.2946 2.65552 14.1326 3.97186 15.3133 5.26636L15.3297 5.28377C15.0115 5.08358 14.7196 4.8473 14.4605 4.58003ZM18.375 6.5868V9.37989C18.375 9.37989 17.338 9.33928 16.5707 9.14406C15.4992 8.87103 14.8105 8.45227 14.8105 8.45227C14.8105 8.45227 14.3348 8.15365 14.2964 8.13283V13.9006C14.2964 14.2217 14.2084 15.0238 13.9403 15.6927C13.5902 16.5677 13.05 17.1421 12.9507 17.2595C12.9507 17.2595 12.2937 18.0359 11.1347 18.5588C10.0899 19.0305 9.17262 19.0185 8.89843 19.0305C8.89843 19.0305 7.31278 19.0933 5.88594 18.166C5.5774 17.9616 5.28938 17.7301 5.02563 17.4745L5.03276 17.4796C6.45995 18.4069 8.04525 18.3441 8.04525 18.3441C8.31979 18.3322 9.23707 18.3441 10.2815 17.8725C11.4395 17.3496 12.0975 16.5732 12.0975 16.5732C12.1958 16.4558 12.7385 15.8814 13.0871 15.006C13.3545 14.3374 13.4432 13.5351 13.4432 13.2139V7.44684C13.4816 7.468 13.957 7.76663 13.957 7.76663C13.957 7.76663 14.646 8.18573 15.7175 8.45842C16.4852 8.65363 17.5218 8.69424 17.5218 8.69424V6.50557C17.8764 6.58509 18.1788 6.60659 18.375 6.5868Z" fill="#EE1D52"/>
<path d="M17.5222 6.50557V8.69356C17.5222 8.69356 16.4856 8.65295 15.7179 8.45773C14.6464 8.1847 13.9574 7.76595 13.9574 7.76595C13.9574 7.76595 13.482 7.46732 13.4436 7.44616V13.2146C13.4436 13.5357 13.3556 14.3381 13.0875 15.0067C12.7375 15.8821 12.1973 16.4565 12.0979 16.5739C12.0979 16.5739 11.4406 17.3503 10.2819 17.8732C9.23748 18.3448 8.3202 18.3329 8.04566 18.3448C8.04566 18.3448 6.46036 18.4076 5.03316 17.4803L5.02604 17.4752C4.87536 17.3293 4.73352 17.1752 4.60123 17.0138C4.14579 16.4585 3.86662 15.8019 3.79647 15.6145C3.79635 15.6137 3.79635 15.6129 3.79647 15.6121C3.68359 15.2865 3.44644 14.5047 3.47884 13.7473C3.53617 12.4112 4.00621 11.5911 4.13048 11.3856C4.45961 10.8254 4.88769 10.3241 5.39566 9.90411C5.84391 9.5417 6.35199 9.25335 6.89906 9.05089C7.49046 8.81317 8.12374 8.68575 8.76495 8.67547V10.8904C8.76495 10.8904 7.592 10.5184 6.65336 11.1771C5.99709 11.6645 5.64884 12.1399 5.54628 12.989C5.54201 13.6139 5.70189 14.4982 6.57894 15.0879C6.68125 15.1528 6.78167 15.2103 6.88018 15.2606C7.0334 15.4598 7.21989 15.6333 7.43212 15.7742C8.28886 16.3165 9.00673 16.3544 9.92473 16.0022C10.5368 15.7667 10.9976 15.236 11.2113 14.648C11.3455 14.2808 11.3437 13.9112 11.3437 13.5289V2.65552H13.4803C13.5686 3.15755 13.8128 3.8722 14.4588 4.58003C14.7179 4.8473 15.0097 5.08358 15.328 5.28377C15.422 5.38103 15.9027 5.86191 16.5198 6.15712C16.8389 6.30972 17.1752 6.42663 17.5222 6.50557Z" fill="black"/>
<path d="M2.94604 14.9343V14.936L2.99906 15.0797C2.99297 15.063 2.97327 15.0121 2.94604 14.9343Z" fill="#69C9D0"/>
<path d="M6.89904 9.05092C6.35197 9.25339 5.84389 9.54173 5.39564 9.90414C4.88751 10.3251 4.45954 10.8274 4.13082 11.3887C4.00654 11.5935 3.53651 12.4143 3.47918 13.7504C3.44678 14.5078 3.68393 15.2896 3.79681 15.6152C3.79669 15.616 3.79669 15.6168 3.79681 15.6176C3.86803 15.8033 4.14613 16.4599 4.60156 17.0169C4.73386 17.1783 4.87569 17.3324 5.02638 17.4783C4.54359 17.1583 4.11302 16.7714 3.74874 16.3302C3.29722 15.7797 3.01876 15.1299 2.94612 14.9381C2.94603 14.9368 2.94603 14.9354 2.94612 14.934V14.9316C2.83288 14.6064 2.59502 13.8242 2.62813 13.0658C2.68546 11.7297 3.1555 10.9096 3.27977 10.7041C3.60839 10.1427 4.03638 9.64036 4.54459 9.21952C4.99275 8.85699 5.50085 8.56863 6.04799 8.3663C6.38926 8.23059 6.74479 8.13047 7.10842 8.06767C7.65642 7.97599 8.21611 7.96804 8.76671 8.04412V8.67551C8.1249 8.68557 7.49099 8.81299 6.89904 9.05092Z" fill="#69C9D0"/>
<path d="M13.4819 2.65542H11.3453V13.5292C11.3453 13.9114 11.3453 14.28 11.2129 14.6482C10.9971 15.2359 10.5381 15.7666 9.92634 16.0021C9.00799 16.3557 8.29012 16.3164 7.43373 15.7741C7.22114 15.6339 7.03417 15.4609 6.88037 15.2622C7.60999 15.6352 8.26306 15.6288 9.07208 15.3175C9.68349 15.082 10.1432 14.5513 10.3583 13.9633C10.4929 13.596 10.4911 13.2264 10.4911 12.8445V1.96875H13.4413C13.4413 1.96875 13.4082 2.23905 13.4819 2.65542ZM17.522 5.90037V6.50547C17.1757 6.42641 16.8399 6.30949 16.5214 6.15702C15.9043 5.86181 15.4236 5.38093 15.3296 5.28367C15.4387 5.35231 15.5519 5.41476 15.6686 5.47069C16.4189 5.82973 17.1577 5.93689 17.522 5.90037Z" fill="#69C9D0"/>
</svg>
