<svg width="121" height="28" viewBox="0 0 121 28" fill="none" xmlns="http://www.w3.org/2000/svg">
<g clip-path="url(#clip0_102_2185)">
<path d="M7.37942 6.80524H10.1258L9.64022 10.678H6.92567L6.20922 16.5387C6.06593 17.5366 6.44008 17.9088 7.09284 17.9088C7.55455 17.9088 8.00831 17.8217 8.54962 17.6791L8.29488 21.5519C7.00528 21.837 6.08981 21.9796 4.9435 21.9796C1.31349 21.9796 0.565198 20.1264 0.995068 16.6258L1.7354 10.6463H0L0.374145 7.80314L2.17323 7.14579L2.54737 4.18379L7.80929 3.30469L7.37942 6.80524Z" fill="#0D58C6"/>
<path d="M21.6392 6.83665L20.5486 11.644C20.1187 11.446 19.7207 11.3589 19.259 11.3589C18.0888 11.3589 17.1415 11.8182 16.3693 13.2121L15.3424 21.6388H10.168L11.9989 6.80497H16.3215L16.234 7.46231L15.7165 9.28386H16.0907C17.1494 7.43063 18.6062 6.49609 20.1824 6.49609C20.7794 6.49609 21.2093 6.60697 21.6392 6.83665Z" fill="#0D58C6"/>
<path d="M34.0458 21.6346H30.2088L29.8665 19.8447H29.6914C28.8635 21.2703 27.2316 21.983 25.6315 21.983C22.5428 21.983 21.3965 20.1615 21.8582 16.4629L23.0603 6.81662H28.2028L27.1201 15.6789C26.945 16.9619 27.1759 17.643 28.0675 17.643C28.6406 17.643 29.1262 17.247 29.4685 16.6768L30.7024 6.80078H35.8449L34.0458 21.6346Z" fill="#0D58C6"/>
<path d="M54.3409 17.9265C54.5956 17.9265 54.8026 17.8711 55.0255 17.8156V21.6013C54.0782 21.7993 53.107 21.9419 52.1915 21.9419C48.9834 21.9419 47.9247 20.4054 48.4182 16.4772L49.875 4.6054C49.0153 4.51828 48.2431 4.46284 47.5266 4.46284C45.7276 4.46284 44.9235 4.89051 44.7803 6.05472L44.6927 6.79127H47.1286L46.643 10.6324H44.2071L42.201 27.4303L36.8516 28.0005L39.0248 10.6324H37.3053L37.6795 7.52781L39.4547 7.06846L39.5422 6.35568C40.0597 2.2849 43.2598 0.574219 48.1555 0.574219C49.1586 0.574219 50.6711 0.685096 51.8492 0.891011L55.5429 0.574219L53.5687 16.6039C53.4254 17.586 53.7677 17.9265 54.3409 17.9265Z" fill="#0D58C6"/>
<path d="M66.654 8.19574H66.7098L67.3944 6.80186H70.9686L69.1059 21.6357H64.8152L64.8709 21.0654L65.4998 19.2439H65.1017C64.242 20.8912 62.6658 21.9762 60.7234 21.9762C57.4915 21.9762 55.8914 19.2993 56.4884 14.2623C57.1731 8.68677 59.3781 6.43755 62.7534 6.43755C64.847 6.42963 66.1366 7.40376 66.654 8.19574ZM61.9573 13.7475C61.5832 16.7967 61.9892 17.9609 62.9842 17.9609C63.645 17.9609 64.242 17.4461 64.5604 16.765L65.3007 10.9281C65.046 10.3579 64.6161 9.93018 63.8997 9.93018C62.8728 9.93018 62.3076 10.9281 61.9573 13.7475Z" fill="#0D58C6"/>
<path d="M79.8015 6.80524H82.5479L82.0623 10.678H79.3477L78.6313 16.5387C78.488 17.5366 78.8621 17.9088 79.5149 17.9088C79.9766 17.9088 80.4304 17.8217 80.9717 17.6791L80.7169 21.5519C79.4273 21.837 78.5119 21.9796 77.3656 21.9796C73.7356 21.9796 72.9873 20.1264 73.4172 16.6258L74.1575 10.6463H72.4141L72.7883 7.80314L74.5873 7.14579L74.9615 4.18379L80.2234 3.30469L79.8015 6.80524Z" fill="#0D58C6"/>
<path d="M87.7643 21.6369H82.582L84.389 6.80311H89.5713L87.7643 21.6369ZM90.3355 2.70065C90.1604 4.21334 88.6797 5.40131 87.1911 5.40131C85.6468 5.40131 84.5004 4.20542 84.6756 2.70065C84.8507 1.21965 86.2757 0 87.8518 0C89.3405 0 90.5425 1.22757 90.3355 2.70065Z" fill="#0D58C6"/>
<path d="M104.608 14.096C103.892 20.0992 100.915 21.9841 96.7433 21.9841C92.7949 21.9841 90.1043 20.0754 90.8207 14.096C91.5371 8.29073 94.4268 6.4375 98.6618 6.4375C102.698 6.4375 105.325 8.34617 104.608 14.096ZM96.2259 14.0405C95.8279 17.2322 96.1702 18.6498 97.1732 18.6498C98.2001 18.6498 98.8927 17.2243 99.2907 14.0405C99.6649 10.9914 99.2907 9.7955 98.2638 9.7955C97.2608 9.7955 96.6 10.9914 96.2259 14.0405Z" fill="#0D58C6"/>
<path d="M119.968 12.1874L118.822 21.6357H113.64L114.73 12.6943C114.929 11.3004 114.587 10.7618 113.783 10.7618C113.186 10.7618 112.581 11.1578 112.183 11.728L110.981 21.6357H105.799L107.63 6.80192H111.952L111.896 7.34046L111.355 9.13034H111.729C112.756 7.56222 114.364 6.42969 116.362 6.42969C119.22 6.43761 120.454 8.34628 119.968 12.1874Z" fill="#0D58C6"/>
</g>
<defs>
<clipPath id="clip0_102_2185">
<rect width="121" height="28" fill="white"/>
</clipPath>
</defs>
</svg>
