<svg width="38" height="38" viewBox="0 0 38 38" fill="none" xmlns="http://www.w3.org/2000/svg">
<g clip-path="url(#clip0_85_1777)">
<circle cx="19" cy="19" r="19" fill="white"/>
<path d="M11.7558 21.4895L12.5502 15.5203L5.65918 10.7365L11.9555 12.8693L13.4424 10.5878L18.872 7.21875L30.84 13.8124L31.4603 23.8729L26.1284 31.2822L21.9139 31.928L24.0934 27.9387V24.098L22.5087 21.0986L20.8985 20.0322L18.4217 22.5856V25.2876L16.4886 27.0975L14.033 27.3949L12.9454 28.0109L11.161 27.4416L10.4175 24.765L11.7558 22.883V21.4895Z" fill="white"/>
<path d="M22.7586 10.6857C21.4458 10.4138 20.0098 10.486 20.0098 10.486C20.0098 10.486 19.5382 12.6655 16.6152 13.239C16.6365 13.239 20.4771 14.5518 22.7586 10.6857Z" fill="#94A6C3"/>
<path d="M23.9482 30.4625C25.5329 29.2219 26.7225 27.514 27.2706 25.5809C27.2961 25.5087 27.517 25.3812 27.6657 25.2835C27.9121 25.1348 28.1627 25.0116 28.2095 24.8119C28.3072 24.2426 28.3582 23.6479 28.3582 23.0531C28.3582 22.8321 28.133 22.607 27.9121 22.3861C27.7379 22.2374 27.5637 22.0632 27.5637 21.94C27.3173 19.684 26.2764 17.5768 24.6152 16.043L24.4411 16.2172C26.0512 17.7297 27.0921 19.786 27.3173 21.9655C27.3428 22.1651 27.5382 22.3606 27.7379 22.5602C27.9121 22.7089 28.1118 22.9341 28.1118 23.0318C28.1118 23.6011 28.0608 24.1704 27.9631 24.7397C27.9376 24.8374 27.7167 24.9394 27.5425 25.0371C27.2961 25.1603 27.0709 25.2835 27.0241 25.4832C26.4294 27.5905 25.0656 29.4258 23.2557 30.6154C23.5786 29.9229 24.594 27.6669 25.1378 26.5241L25.0401 22.8576L21.892 19.8115L20.1076 20.0579L18.149 23.2315C18.149 23.2315 19.0667 24.3956 17.7752 25.7594C16.5134 27.0976 15.5192 27.395 15.5192 27.395L14.6015 26.898C14.8734 26.5496 15.4215 26.0313 15.8421 25.6829C16.5601 25.0881 17.2781 25.0371 17.2781 24.3956C17.3078 23.0531 15.8676 23.4227 15.8676 23.4227L15.345 23.9198L15.1241 25.7551L14.0365 27.1189L13.9133 27.0934L12.1289 26.6983C12.1289 26.6983 13.2208 26.129 13.395 25.4832C13.5691 24.8629 13.0466 22.8067 13.0211 22.6834C13.0466 22.7089 13.5437 23.1295 13.7646 23.822C14.1597 22.7302 14.6823 21.6893 14.831 21.5916C14.9797 21.4939 16.9849 20.4275 16.9849 20.4275L16.3179 22.1864L16.815 21.9145L18.0046 18.9915C18.0046 18.9915 19.1687 18.4222 20.0354 18.4222C21.5946 18.3967 23.9015 16.4891 22.8606 13.0691C23.158 13.1923 28.3114 15.7711 29.2036 20.8269C29.8706 24.7142 27.6657 28.3552 23.9482 30.4625Z" fill="#94A6C3"/>
<path d="M18.0518 11.2293C18.6211 10.558 18.4002 9.56812 18.4002 9.56812L16.739 12.0237C16.7136 12.0237 17.3296 12.0492 18.0518 11.2293Z" fill="#1B314F"/>
<path d="M12.4729 24.6376L12.6726 23.6477C12.6726 23.6477 11.8526 25.0837 11.7804 25.2834C11.7039 25.5085 11.8314 25.9037 12.15 25.8782C12.4729 25.8527 12.868 25.3811 12.868 25.037C12.868 24.5909 12.4729 24.6376 12.4729 24.6376Z" fill="#1B314F"/>
<path d="M27.5555 8.45677C27.5555 8.45677 28.8156 8.50858 30.1232 8.65969C27.1757 6.34124 24.3835 5.66341 22.1178 5.66341C18.9976 5.66341 16.8829 6.94999 16.7535 7.02339L17.7374 5.46049C17.7374 5.46049 13.8102 5.08056 12.4249 9.23822C12.071 8.35747 11.7473 7.07088 11.7473 7.07088C11.7473 7.07088 9.70606 8.86261 10.6641 11.833C8.32074 10.9781 4.97614 9.79085 4.84667 9.76926C4.66973 9.74336 4.61794 9.82107 4.61794 9.82107C4.61794 9.82107 4.56616 9.89447 4.7172 10.024C4.99772 10.2442 10.2844 14.1514 11.4453 14.907C11.1949 15.8136 11.1949 16.2411 11.4453 16.6685C11.7991 17.247 11.8207 17.5492 11.7732 17.9767C11.7215 18.4041 11.2683 22.1084 11.1691 22.5617C11.0698 23.0151 10.0125 24.6255 10.0599 25.1047C10.1117 25.5839 10.7634 27.6218 11.346 27.8506C11.7732 28.0017 12.8306 28.3298 13.534 28.3298C13.7843 28.3298 14.013 28.278 14.1123 28.1787C14.5396 27.8031 14.6647 27.7254 14.9668 27.7254C14.9927 27.7254 15.0186 27.7254 15.0402 27.7254C15.1653 27.7254 15.3164 27.7513 15.4933 27.7513C15.8947 27.7513 16.4255 27.6736 16.8009 27.3239C17.3533 26.7712 18.3114 26.0157 18.6135 25.6616C18.9933 25.1824 19.1918 24.5305 19.0925 23.8742C19.0148 23.2698 19.3428 22.7388 19.7226 22.212C20.2016 21.5817 21.082 20.4505 21.082 20.4505C22.8212 21.7544 23.9044 23.7447 23.9044 25.9596C23.9044 29.8884 20.4822 33.0617 16.2529 33.0617C15.5969 33.0617 14.9711 32.9883 14.341 32.8372C16.2787 33.515 17.9144 33.7438 19.2522 33.7438C22.0962 33.7438 23.6067 32.712 23.6067 32.712C23.6067 32.712 23.0802 33.3941 22.2214 34.1713C22.2472 34.1713 22.2472 34.1713 22.2472 34.1713C26.9556 33.515 29.2472 29.638 29.2472 29.638C29.2472 29.638 29.0702 30.8987 28.8458 31.7535C35.1078 27.0432 34.0505 21.15 34.0246 20.9514C34.0764 21.0248 34.7064 21.7803 35.0301 22.1861C36.04 11.8071 27.5555 8.45677 27.5555 8.45677ZM17.9144 25.0313C17.8151 25.1565 17.3879 25.5364 17.0858 25.8128C16.7837 26.0891 16.4557 26.3654 16.2054 26.6201C16.1061 26.7194 15.9033 26.7712 15.6012 26.7712C15.5019 26.7712 15.3984 26.7712 15.325 26.7712C15.2732 26.7712 15.2257 26.7712 15.1739 26.7712C15.1222 26.7712 15.0963 26.7712 15.0747 26.7712C14.997 26.7712 14.9236 26.7712 14.846 26.7712C15.2257 26.2661 16.3305 25.109 16.7103 24.8586C17.1634 24.5564 17.3922 24.2542 17.1117 23.7274C16.8355 23.1964 16.1061 23.3259 16.1061 23.3259C16.1061 23.3259 16.5334 23.1489 16.9131 23.1489C16.4341 23.0237 15.8299 23.1489 15.5537 23.4252C15.2516 23.7015 15.3034 24.6859 15.1783 25.3119C15.0531 25.9682 14.6259 26.2963 13.9699 26.9007C13.616 27.2289 13.3657 27.3282 13.1629 27.3282C12.7356 27.2548 12.2307 27.1253 11.8768 27C11.6265 26.6719 11.2467 25.5883 11.1475 25.1349C11.2208 24.8845 11.5229 24.3535 11.674 24.0513C11.9761 23.4727 12.153 23.1446 12.2048 22.8424C12.3041 22.415 12.632 19.7684 12.7572 18.6631C13.0852 19.0906 13.5383 19.7986 13.4348 20.2519C14.1641 19.2201 13.6376 18.2098 13.383 17.8083C13.1586 17.4068 12.8565 16.5994 13.1068 15.7446C13.3571 14.8897 14.2634 12.5195 14.2634 12.5195C14.2634 12.5195 14.5654 13.0505 14.9927 12.9469C15.4199 12.8476 18.8681 7.65805 18.8681 7.65805C18.8681 7.65805 19.8003 9.69587 18.8163 11.1854C17.8108 12.6706 16.8268 12.9469 16.8268 12.9469C16.8268 12.9469 18.2121 13.1973 19.4939 12.2647C20.0204 13.4995 20.5253 14.7818 20.5512 14.9588C20.4735 15.1358 19.468 17.5536 19.3687 17.7047C19.3169 17.7565 18.9674 17.8558 18.7128 17.9076C18.2855 18.0328 18.0352 18.1105 17.9316 18.1839C17.7547 18.335 16.9477 20.5498 16.5722 21.6335C16.1191 21.7587 15.6659 22.0134 15.3379 22.5143C15.5149 22.3891 16.0673 22.3113 16.4729 22.2638C16.8268 22.2379 17.9057 22.8165 18.1862 23.9001C18.1862 23.9261 18.1862 23.9261 18.1862 23.952C18.2424 24.3492 18.1172 24.7291 17.9144 25.0313ZM15.5494 25.3335C15.7781 25.0054 15.7522 24.4528 15.7781 24.2758C15.804 24.0987 15.8515 23.7706 16.0543 23.7231C16.2572 23.6713 16.7362 23.749 16.7362 24.0987C16.7362 24.4269 16.3823 24.5003 16.132 24.7291C15.9508 24.9018 15.5969 25.2817 15.5494 25.3335ZM25.5919 20.5196C25.8422 19.2373 25.868 18.1278 25.7947 17.2211C26.7743 18.5293 27.3785 20.1181 27.5555 21.7544C27.5813 21.9573 27.7799 22.1559 27.9827 22.3588C28.1596 22.5099 28.3625 22.7129 28.3625 22.8381C28.3625 23.4166 28.3107 23.9951 28.2114 24.578C28.1855 24.6514 27.9611 24.7809 27.7842 24.8802C27.5339 25.0054 27.3052 25.1306 27.2577 25.3335C26.7053 27.272 25.5185 28.9861 23.9347 30.1949C26.2737 27.7513 27.4044 23.7188 25.5919 20.5196ZM24.008 30.4194C25.6436 29.1588 26.9038 27.3972 27.4562 25.4069C27.4821 25.3335 27.7065 25.204 27.8575 25.1047C28.1079 24.9795 28.3625 24.8284 28.41 24.6255C28.5092 24.0469 28.561 23.4425 28.561 22.8381C28.561 22.6136 28.3323 22.3847 28.1079 22.1602C27.9827 22.0091 27.7799 21.8321 27.7799 21.7069C27.577 19.8677 26.8477 18.1321 25.717 16.6944C25.2121 13.6722 23.201 12.7396 23.1492 12.7137C23.201 12.7914 24.5086 14.6782 23.6024 16.893C22.6702 19.1337 20.2793 18.784 20.0765 18.8056C19.8737 18.8056 19.0968 19.8116 18.1129 21.6767C17.9877 21.6249 17.4569 21.4997 16.8527 21.6033C17.3059 20.3426 17.9877 18.5552 18.1129 18.4041C18.1647 18.3523 18.5401 18.253 18.7948 18.1796C19.2738 18.0544 19.4982 17.9767 19.5759 17.8774C19.6277 17.7996 19.878 17.2211 20.1283 16.6167C20.357 16.6167 20.9353 16.5649 20.9828 16.539C21.0346 16.4872 21.5136 15.2567 21.5136 15.1056C21.5136 14.9804 20.5296 12.5367 20.1542 11.6042C20.3311 11.4012 20.5081 11.1508 20.6807 10.8745C25.8422 11.4315 29.8729 15.8136 29.8729 21.1241C29.8729 25.204 27.4821 28.7572 24.008 30.4194Z" fill="#1B314F"/>
<path d="M17.1085 17.1051C17.5801 16.5613 17.3337 15.5459 16.4628 15.3717C16.6879 14.8534 17.0066 13.8125 17.0066 13.8125C17.0066 13.8125 14.4787 17.7763 14.2578 17.8528C14.0326 17.9293 13.8117 17.0584 13.8117 17.0584C13.3401 18.8682 14.6062 19.1146 14.7549 18.5453C15.4474 18.3669 16.637 17.6234 17.1085 17.1051Z" fill="#1B314F"/>
<path d="M14.9502 18.0695L16.2375 15.8645C16.2375 15.8645 16.981 16.2384 16.6071 16.8332C16.1398 17.5257 14.9502 18.0695 14.9502 18.0695Z" fill="#FFD923"/>
<path d="M30.8859 28.2828C30.5121 28.7799 30.0915 29.2982 29.5986 29.7953C32.7935 23.6477 29.7473 18.0227 29.6241 17.8018C29.8493 18.0269 30.0702 18.2733 30.2699 18.4943C32.7213 21.2176 33.0187 25.3089 30.8859 28.2828Z" fill="#D82122"/>
<path d="M33.8605 20.3763C32.7432 17.3769 31.1585 14.8235 27.6662 12.5208C24.2971 10.2904 20.6774 10.4646 20.4777 10.4901C20.4522 10.4901 20.4268 10.4901 20.4268 10.4901C20.55 10.4391 20.6732 10.4136 20.7964 10.3923C21.5654 10.1459 22.5553 9.94626 23.5494 9.82305C26.1792 9.44493 28.8303 10.3371 30.6402 12.2489C30.6656 12.2744 30.6656 12.2744 30.6911 12.2999C32.7474 14.4794 33.8138 17.2027 33.8605 20.3763Z" fill="#D82122"/>
<path d="M26.8714 8.10677C23.1794 7.41427 20.8003 7.7584 19.0881 8.40417C19.0371 8.20449 18.863 7.80938 18.7143 7.48649C18.2002 8.10677 17.6521 8.85026 17.308 9.32185C16.3648 9.96762 15.9697 10.5879 15.9697 10.5879C16.5135 8.72706 18.1025 7.34205 20.0355 6.99367C20.5793 6.89595 21.1741 6.84497 21.8199 6.84497C23.5278 6.87046 25.2357 7.29106 26.8714 8.10677Z" fill="#D82122"/>
<path d="M13.2169 12.8649C10.3195 12.7672 11.2839 9.39392 11.3349 9.19849C11.3349 9.22398 11.5303 11.8495 13.2169 12.8649Z" fill="#D82122"/>
<path d="M16.0673 6.79395C13.8369 8.13222 14.283 11.3271 14.283 11.3271C12.1502 8.08549 15.8931 6.87042 16.0673 6.79395Z" fill="#D82122"/>
<path d="M12.4007 13.7571C12.5494 13.8803 12.6981 14.1055 12.5239 14.4284C12.4262 14.6025 12.2775 14.5771 12.0523 14.4793C11.7549 14.3306 9.97053 13.2898 8.36035 12.2234C10.1957 12.8692 12.0523 13.5617 12.3497 13.7104C12.3497 13.7104 12.3752 13.7359 12.4007 13.7571Z" fill="white"/>
</g>
<defs>
<clipPath id="clip0_85_1777">
<rect width="38" height="38" fill="white"/>
</clipPath>
</defs>
</svg>
