<svg width="15" height="12" viewBox="0 0 15 12" fill="none" xmlns="http://www.w3.org/2000/svg">
<path d="M11.6258 1.03839L7.5437 4.22413L3.36825 1.03839V1.03925L3.3733 1.04356V5.50446L7.49662 8.75908L11.6258 5.63016V1.03839Z" fill="#EA4335"/>
<path d="M12.6979 0.263445L11.6259 1.03835V5.63013L14.9992 3.04021V1.48005C14.9992 1.48005 14.5898 -0.748244 12.6979 0.263445Z" fill="#FBBC05"/>
<path d="M11.6259 5.63023V11.5858H14.2114C14.2114 11.5858 14.9471 11.5101 15.0001 10.6715V3.04031L11.6259 5.63023Z" fill="#34A853"/>
<path d="M3.37349 11.5909V5.50438L3.36825 5.50008L3.37349 11.5909Z" fill="#C5221F"/>
<path d="M3.36827 1.0393L2.30213 0.26869C0.410314 -0.742998 0 1.48444 0 1.48444V3.04459L3.36827 5.50019V1.0393Z" fill="#C5221F"/>
<path d="M3.36825 1.03921V5.50011L3.37349 5.50442V1.04352L3.36825 1.03921Z" fill="#C5221F"/>
<path d="M0 3.04538V10.6765C0.05213 11.516 0.788677 11.5909 0.788677 11.5909H3.37416L3.36827 5.50013L0 3.04538Z" fill="#4285F4"/>
</svg>
