<svg width="38" height="38" viewBox="0 0 38 38" fill="none" xmlns="http://www.w3.org/2000/svg">
<path d="M19 38C29.4934 38 38 29.4934 38 19C38 8.50659 29.4934 0 19 0C8.50659 0 0 8.50659 0 19C0 29.4934 8.50659 38 19 38Z" fill="#0D1E30"/>
<g filter="url(#filter0_d_0_125)">
<path d="M18.6739 7.19624C19.2427 6.90293 19.9374 7.58099 19.6358 8.14031C19.4588 8.59631 18.7926 8.71743 18.453 8.36949C18.0932 8.03699 18.2108 7.37674 18.6739 7.19506V7.19624ZM12.5523 7.84462C12.8979 7.70449 13.3361 8.01562 13.3004 8.38731C13.3361 8.78868 12.8373 9.08556 12.4846 8.89437C12.0179 8.71624 12.0714 7.97049 12.5523 7.84462ZM25.0899 8.90506C24.5496 8.84093 24.4641 8.00493 24.9831 7.83631C25.3868 7.64393 25.7573 8.00612 25.8167 8.38256C25.7312 8.70318 25.4581 8.99768 25.0899 8.90506ZM13.9453 10.4072C14.5236 10.0474 15.3477 10.583 15.2586 11.2444C15.2289 11.9106 14.3288 12.2977 13.8206 11.8465C13.3289 11.4926 13.4038 10.6804 13.9453 10.4072ZM22.7684 10.7896C23.0261 10.1365 24.0711 10.1151 24.3644 10.7516C24.6553 11.2468 24.2979 11.8607 23.7813 12.0294C23.0961 12.1552 22.4466 11.4261 22.7684 10.7896ZM17.9364 11.9926C17.9305 11.4297 18.4506 11.0117 18.9933 10.9725C19.3543 11.0437 19.7462 11.1946 19.9006 11.552C20.1891 12.046 19.9326 12.7241 19.4137 12.9509C19.1762 13.0815 18.8936 13.0328 18.6347 13.0174C18.2393 12.8274 17.9056 12.4509 17.9364 11.9926ZM8.83307 12.8119C9.36151 12.4913 10.074 13.0732 9.87332 13.6384C9.76407 14.1265 9.0967 14.3248 8.71551 14.0137C8.3082 13.7216 8.37232 13.0197 8.83426 12.8107L8.83307 12.8119ZM28.3817 12.8096C28.8294 12.4676 29.5692 12.8606 29.5146 13.4164C29.5454 13.9234 28.9054 14.307 28.4613 14.0457C27.972 13.8284 27.9209 13.0874 28.3817 12.8107V12.8096ZM20.4967 13.8201C21.2353 13.5589 22.1141 13.8712 22.5344 14.5207C23.0902 15.3128 22.7957 16.5193 21.9324 16.9741C21.0394 17.5121 19.7343 17.0572 19.403 16.074C19.0289 15.1952 19.5752 14.0956 20.4955 13.8201H20.4967ZM16.1588 13.9068C16.9781 13.5268 18.0813 13.8451 18.4768 14.6692C18.9423 15.4719 18.5824 16.5894 17.75 17.0038C16.9164 17.4705 15.7396 17.1166 15.337 16.2557C14.8846 15.4221 15.2859 14.2904 16.1588 13.9068ZM11.8161 15.3662C11.879 14.8473 12.3766 14.5089 12.8789 14.4732C13.1409 14.5009 13.3857 14.6166 13.5733 14.8015C13.761 14.9864 13.8804 15.2294 13.912 15.4909C13.8764 16.0253 13.4572 16.5454 12.8824 16.5431C12.2495 16.5965 11.6949 15.9766 11.8161 15.3662ZM24.6434 14.5872C25.293 14.2156 26.1943 14.7559 26.1658 15.4897C26.2098 16.2676 25.2123 16.815 24.5663 16.359C23.8941 15.979 23.9464 14.9102 24.6434 14.5872ZM14.3953 17.3268C15.1529 17.1214 16.0222 17.4729 16.3939 18.1592C16.8012 18.8504 16.6349 19.8099 16.002 20.3181C15.1886 21.0615 13.6911 20.7622 13.2589 19.7481C12.7613 18.8183 13.3658 17.5714 14.3941 17.3256L14.3953 17.3268ZM22.6211 17.3232C23.3586 17.1154 24.2254 17.3945 24.6221 18.0559C25.1469 18.8124 24.8964 19.9417 24.1162 20.4286C23.2968 20.995 22.0309 20.6981 21.5797 19.8122C21.0334 18.8967 21.5833 17.6023 22.6211 17.3232ZM9.51114 18.1854C10.1666 17.9419 10.8934 18.6532 10.6274 19.2933C10.4659 19.8752 9.63107 20.0913 9.20001 19.6614C8.69532 19.2577 8.88176 18.3611 9.51114 18.1854ZM27.2868 19.114C27.2745 18.8526 27.3659 18.5969 27.5412 18.4025C27.7164 18.2082 27.9613 18.0909 28.2226 18.0761C28.6714 18.1474 29.1084 18.5036 29.0728 18.9846C29.1144 19.6199 28.3366 20.0509 27.7856 19.7529C27.5279 19.6234 27.3961 19.3634 27.2868 19.114ZM6.28707 18.5012C6.68132 18.3314 7.16939 18.6675 7.07914 19.0986C7.05776 19.5866 6.32507 19.7754 6.0567 19.3669C5.8192 19.0831 5.9617 18.6473 6.28707 18.5001V18.5012ZM31.164 18.4906C31.4419 18.297 31.8884 18.4359 31.9976 18.7554C32.1841 19.1045 31.8421 19.5819 31.4431 19.5237C30.8826 19.5736 30.7021 18.734 31.164 18.4906ZM16.5376 20.8335C17.5754 20.5687 18.6917 21.4201 18.6988 22.4722C18.7653 23.5351 17.6657 24.4767 16.6041 24.2321C15.7823 24.1015 15.1375 23.3225 15.1648 22.5067C15.1624 21.7253 15.7609 20.9986 16.5376 20.8335ZM20.6487 20.8323C21.702 20.5426 22.8515 21.4094 22.8349 22.4853C22.8907 23.5279 21.8255 24.4387 20.7853 24.2309C19.8056 24.1074 19.0836 23.0494 19.3567 22.1136C19.4944 21.4914 20.0241 20.9855 20.6487 20.8311V20.8323ZM12.7209 21.4795C13.4501 21.3572 14.1341 22.1564 13.8384 22.838C13.6223 23.5647 12.5488 23.7607 12.0738 23.1681C11.518 22.5981 11.9336 21.5579 12.7209 21.4795ZM24.7788 21.5116C25.4296 21.2432 26.2276 21.7966 26.1777 22.4912C26.2038 23.2548 25.2182 23.7821 24.5829 23.3356C23.8621 22.9354 23.9939 21.7562 24.7788 21.5116ZM28.1489 24.8366C27.8948 24.3699 28.3568 23.7512 28.8852 23.8379C29.1464 23.8331 29.3305 24.0362 29.4979 24.2072C29.5324 24.4839 29.5906 24.814 29.3566 25.0266C29.0396 25.422 28.3211 25.3092 28.1489 24.8366ZM8.8307 23.9673C9.32351 23.6455 10.0324 24.1264 9.92082 24.6917C9.86145 25.194 9.2202 25.4802 8.79864 25.1952C8.34501 24.9375 8.36164 24.2024 8.8307 23.9673ZM18.5599 25.0159C19.2047 24.7368 20.0264 25.289 19.9647 25.9872C20.0122 26.7591 18.9969 27.2935 18.3663 26.8304C17.6657 26.4326 17.7833 25.2617 18.5599 25.0159ZM14.0545 26.0502C14.6031 25.7664 15.3394 26.2568 15.2895 26.8624C15.3061 27.3588 14.8145 27.7816 14.3158 27.7079C13.9037 27.6996 13.6353 27.3351 13.5023 26.9895C13.5094 26.6131 13.6674 26.1939 14.0545 26.0514V26.0502ZM23.1816 26.0597C23.7469 25.7153 24.5496 26.2093 24.4962 26.8553C24.5104 27.5322 23.6032 27.9644 23.0771 27.5203C22.5689 27.1724 22.6306 26.3364 23.1816 26.0597ZM24.7693 29.9191C24.5176 29.5462 24.8133 29.0961 25.2206 29.0106C25.5495 29.0759 25.8974 29.3194 25.8274 29.6922C25.7799 30.1993 25.027 30.3537 24.7693 29.9202V29.9191ZM12.1688 29.5949C12.2685 29.298 12.5108 29.0047 12.8658 29.0819C13.3824 29.1175 13.5356 29.8846 13.0831 30.1209C12.677 30.3905 12.2044 30.0212 12.1688 29.5949ZM18.2488 29.9357C18.3473 29.4963 18.9233 29.2837 19.3033 29.5165C19.555 29.6234 19.6286 29.8989 19.6928 30.134C19.6589 30.2561 19.6272 30.3788 19.5978 30.5021C19.4422 30.6826 19.2415 30.8643 18.9826 30.8584C18.5017 30.9142 18.0671 30.3786 18.2476 29.9357H18.2488Z" fill="black"/>
</g>
<path d="M18.6739 7.19624C19.2427 6.90293 19.9374 7.58099 19.6358 8.14031C19.4588 8.59631 18.7926 8.71743 18.453 8.36949C18.0932 8.03699 18.2108 7.37674 18.6739 7.19506V7.19624ZM12.5523 7.84462C12.8979 7.70449 13.3361 8.01562 13.3004 8.38731C13.3361 8.78868 12.8373 9.08556 12.4846 8.89437C12.0179 8.71624 12.0714 7.97049 12.5523 7.84462ZM25.0899 8.90506C24.5496 8.84093 24.4641 8.00493 24.9831 7.83631C25.3868 7.64393 25.7573 8.00612 25.8167 8.38256C25.7312 8.70318 25.4581 8.99768 25.0899 8.90506ZM13.9453 10.4072C14.5236 10.0474 15.3477 10.583 15.2586 11.2444C15.2289 11.9106 14.3288 12.2977 13.8206 11.8465C13.3289 11.4926 13.4038 10.6804 13.9453 10.4072ZM22.7684 10.7896C23.0261 10.1365 24.0711 10.1151 24.3644 10.7516C24.6553 11.2468 24.2979 11.8607 23.7813 12.0294C23.0961 12.1552 22.4466 11.4261 22.7684 10.7896ZM17.9364 11.9926C17.9305 11.4297 18.4506 11.0117 18.9933 10.9725C19.3543 11.0437 19.7462 11.1946 19.9006 11.552C20.1891 12.046 19.9326 12.7241 19.4137 12.9509C19.1762 13.0815 18.8936 13.0328 18.6347 13.0174C18.2393 12.8274 17.9056 12.4509 17.9364 11.9926ZM8.83307 12.8119C9.36151 12.4913 10.074 13.0732 9.87332 13.6384C9.76407 14.1265 9.0967 14.3248 8.71551 14.0137C8.3082 13.7216 8.37232 13.0197 8.83426 12.8107L8.83307 12.8119ZM28.3817 12.8096C28.8294 12.4676 29.5692 12.8606 29.5146 13.4164C29.5454 13.9234 28.9054 14.307 28.4613 14.0457C27.972 13.8284 27.9209 13.0874 28.3817 12.8107V12.8096ZM20.4967 13.8201C21.2353 13.5589 22.1141 13.8712 22.5344 14.5207C23.0902 15.3128 22.7957 16.5193 21.9324 16.9741C21.0394 17.5121 19.7343 17.0572 19.403 16.074C19.0289 15.1952 19.5752 14.0956 20.4955 13.8201H20.4967ZM16.1588 13.9068C16.9781 13.5268 18.0813 13.8451 18.4768 14.6692C18.9423 15.4719 18.5824 16.5894 17.75 17.0038C16.9164 17.4705 15.7396 17.1166 15.337 16.2557C14.8846 15.4221 15.2859 14.2904 16.1588 13.9068ZM11.8161 15.3662C11.879 14.8473 12.3766 14.5089 12.8789 14.4732C13.1409 14.5009 13.3857 14.6166 13.5733 14.8015C13.761 14.9864 13.8804 15.2294 13.912 15.4909C13.8764 16.0253 13.4572 16.5454 12.8824 16.5431C12.2495 16.5965 11.6949 15.9766 11.8161 15.3662ZM24.6434 14.5872C25.293 14.2156 26.1943 14.7559 26.1658 15.4897C26.2098 16.2676 25.2123 16.815 24.5663 16.359C23.8941 15.979 23.9464 14.9102 24.6434 14.5872ZM14.3953 17.3268C15.1529 17.1214 16.0222 17.4729 16.3939 18.1592C16.8012 18.8504 16.6349 19.8099 16.002 20.3181C15.1886 21.0615 13.6911 20.7622 13.2589 19.7481C12.7613 18.8183 13.3658 17.5714 14.3941 17.3256L14.3953 17.3268ZM22.6211 17.3232C23.3586 17.1154 24.2254 17.3945 24.6221 18.0559C25.1469 18.8124 24.8964 19.9417 24.1162 20.4286C23.2968 20.995 22.0309 20.6981 21.5797 19.8122C21.0334 18.8967 21.5833 17.6023 22.6211 17.3232ZM9.51114 18.1854C10.1666 17.9419 10.8934 18.6532 10.6274 19.2933C10.4659 19.8752 9.63107 20.0913 9.20001 19.6614C8.69532 19.2577 8.88176 18.3611 9.51114 18.1854ZM27.2868 19.114C27.2745 18.8526 27.3659 18.5969 27.5412 18.4025C27.7164 18.2082 27.9613 18.0909 28.2226 18.0761C28.6714 18.1474 29.1084 18.5036 29.0728 18.9846C29.1144 19.6199 28.3366 20.0509 27.7856 19.7529C27.5279 19.6234 27.3961 19.3634 27.2868 19.114ZM6.28707 18.5012C6.68132 18.3314 7.16939 18.6675 7.07914 19.0986C7.05776 19.5866 6.32507 19.7754 6.0567 19.3669C5.8192 19.0831 5.9617 18.6473 6.28707 18.5001V18.5012ZM31.164 18.4906C31.4419 18.297 31.8884 18.4359 31.9976 18.7554C32.1841 19.1045 31.8421 19.5819 31.4431 19.5237C30.8826 19.5736 30.7021 18.734 31.164 18.4906ZM16.5376 20.8335C17.5754 20.5687 18.6917 21.4201 18.6988 22.4722C18.7653 23.5351 17.6657 24.4767 16.6041 24.2321C15.7823 24.1015 15.1375 23.3225 15.1648 22.5067C15.1624 21.7253 15.7609 20.9986 16.5376 20.8335ZM20.6487 20.8323C21.702 20.5426 22.8515 21.4094 22.8349 22.4853C22.8907 23.5279 21.8255 24.4387 20.7853 24.2309C19.8056 24.1074 19.0836 23.0494 19.3567 22.1136C19.4944 21.4914 20.0241 20.9855 20.6487 20.8311V20.8323ZM12.7209 21.4795C13.4501 21.3572 14.1341 22.1564 13.8384 22.838C13.6223 23.5647 12.5488 23.7607 12.0738 23.1681C11.518 22.5981 11.9336 21.5579 12.7209 21.4795ZM24.7788 21.5116C25.4296 21.2432 26.2276 21.7966 26.1777 22.4912C26.2038 23.2548 25.2182 23.7821 24.5829 23.3356C23.8621 22.9354 23.9939 21.7562 24.7788 21.5116ZM28.1489 24.8366C27.8948 24.3699 28.3568 23.7512 28.8852 23.8379C29.1464 23.8331 29.3305 24.0362 29.4979 24.2072C29.5324 24.4839 29.5906 24.814 29.3566 25.0266C29.0396 25.422 28.3211 25.3092 28.1489 24.8366ZM8.8307 23.9673C9.32351 23.6455 10.0324 24.1264 9.92082 24.6917C9.86145 25.194 9.2202 25.4802 8.79864 25.1952C8.34501 24.9375 8.36164 24.2024 8.8307 23.9673ZM18.5599 25.0159C19.2047 24.7368 20.0264 25.289 19.9647 25.9872C20.0122 26.7591 18.9969 27.2935 18.3663 26.8304C17.6657 26.4326 17.7833 25.2617 18.5599 25.0159ZM14.0545 26.0502C14.6031 25.7664 15.3394 26.2568 15.2895 26.8624C15.3061 27.3588 14.8145 27.7816 14.3158 27.7079C13.9037 27.6996 13.6353 27.3351 13.5023 26.9895C13.5094 26.6131 13.6674 26.1939 14.0545 26.0514V26.0502ZM23.1816 26.0597C23.7469 25.7153 24.5496 26.2093 24.4962 26.8553C24.5104 27.5322 23.6032 27.9644 23.0771 27.5203C22.5689 27.1724 22.6306 26.3364 23.1816 26.0597ZM24.7693 29.9191C24.5176 29.5462 24.8133 29.0961 25.2206 29.0106C25.5495 29.0759 25.8974 29.3194 25.8274 29.6922C25.7799 30.1993 25.027 30.3537 24.7693 29.9202V29.9191ZM12.1688 29.5949C12.2685 29.298 12.5108 29.0047 12.8658 29.0819C13.3824 29.1175 13.5356 29.8846 13.0831 30.1209C12.677 30.3905 12.2044 30.0212 12.1688 29.5949ZM18.2488 29.9357C18.3473 29.4963 18.9233 29.2837 19.3033 29.5165C19.555 29.6234 19.6286 29.8989 19.6928 30.134C19.6589 30.2561 19.6272 30.3788 19.5978 30.5021C19.4422 30.6826 19.2415 30.8643 18.9826 30.8584C18.5017 30.9142 18.0671 30.3786 18.2476 29.9357H18.2488Z" fill="white"/>
<defs>
<filter id="filter0_d_0_125" x="4.93848" y="6.62549" width="28.1113" height="25.7368" filterUnits="userSpaceOnUse" color-interpolation-filters="sRGB">
<feFlood flood-opacity="0" result="BackgroundImageFix"/>
<feColorMatrix in="SourceAlpha" type="matrix" values="0 0 0 0 0 0 0 0 0 0 0 0 0 0 0 0 0 0 127 0" result="hardAlpha"/>
<feOffset dy="0.5"/>
<feGaussianBlur stdDeviation="0.5"/>
<feColorMatrix type="matrix" values="0 0 0 0 0 0 0 0 0 0 0 0 0 0 0 0 0 0 0.204257 0"/>
<feBlend mode="normal" in2="BackgroundImageFix" result="effect1_dropShadow_0_125"/>
<feBlend mode="normal" in="SourceGraphic" in2="effect1_dropShadow_0_125" result="shape"/>
</filter>
</defs>
</svg>
