<svg width="66" height="66" viewBox="0 0 66 66" fill="none" xmlns="http://www.w3.org/2000/svg">
<path d="M33 5.5C17.8122 5.5 5.5 17.8122 5.5 33C5.5 48.1878 17.8122 60.5 33 60.5C48.1878 60.5 60.5 48.1878 60.5 33C60.5 17.8122 48.1878 5.5 33 5.5Z" fill="#E8E8E8"/>
<path d="M33.0014 42.625C17.8764 42.625 11.7466 50.4507 11.7466 50.4507C11.7466 50.4507 19.2513 60.5 33.0013 60.5C46.7513 60.5 54.2562 50.4507 54.2562 50.4507C54.2562 50.4507 48.1264 42.625 33.0014 42.625Z" fill="#989898"/>
<path d="M33 33C37.5563 33 41.25 29.3063 41.25 24.75C41.25 20.1937 37.5563 16.5 33 16.5C28.4437 16.5 24.75 20.1937 24.75 24.75C24.75 29.3063 28.4437 33 33 33Z" fill="#989898"/>
</svg>
