<svg width="43" height="43" viewBox="0 0 43 43" fill="none" xmlns="http://www.w3.org/2000/svg">
<path d="M10.75 21.5C10.75 20.5497 10.3725 19.6382 9.70046 18.9662C9.02845 18.2942 8.11702 17.9167 7.16666 17.9167C6.2163 17.9167 5.30487 18.2942 4.63286 18.9662C3.96086 19.6382 3.58333 20.5497 3.58333 21.5C3.58333 22.4504 3.96086 23.3618 4.63286 24.0338C5.30487 24.7058 6.2163 25.0833 7.16666 25.0833C8.11702 25.0833 9.02845 24.7058 9.70046 24.0338C10.3725 23.3618 10.75 22.4504 10.75 21.5ZM10.75 21.5H17.9167M25.0833 21.5C25.0833 20.5497 24.7058 19.6382 24.0338 18.9662C23.3618 18.2942 22.4503 17.9167 21.5 17.9167C20.5496 17.9167 19.6382 18.2942 18.9662 18.9662C18.2942 19.6382 17.9167 20.5497 17.9167 21.5M25.0833 21.5C25.0833 22.4504 24.7058 23.3618 24.0338 24.0338C23.3618 24.7058 22.4503 25.0833 21.5 25.0833C20.5496 25.0833 19.6382 24.7058 18.9662 24.0338C18.2942 23.3618 17.9167 22.4504 17.9167 21.5M25.0833 21.5H32.25M32.25 21.5C32.25 20.5497 32.6275 19.6382 33.2995 18.9662C33.9715 18.2942 34.8829 17.9167 35.8333 17.9167C36.7837 17.9167 37.6951 18.2942 38.3671 18.9662C39.0391 19.6382 39.4166 20.5497 39.4166 21.5C39.4166 22.4504 39.0391 23.3618 38.3671 24.0338C37.6951 24.7058 36.7837 25.0833 35.8333 25.0833C34.8829 25.0833 33.9715 24.7058 33.2995 24.0338C32.6275 23.3618 32.25 22.4504 32.25 21.5ZM26.875 12.5417L23.2916 17.9167M16.125 12.5417L19.7083 17.9167M19.7083 25.0833L16.125 30.4583M23.2916 25.0833L26.875 30.4583M17.9167 34.0417C17.9167 33.0913 17.5391 32.1799 16.8671 31.5079C16.1951 30.8359 15.2837 30.4583 14.3333 30.4583C13.383 30.4583 12.4715 30.8359 11.7995 31.5079C11.1275 32.1799 10.75 33.0913 10.75 34.0417C10.75 34.992 11.1275 35.9035 11.7995 36.5755C12.4715 37.2475 13.383 37.625 14.3333 37.625C15.2837 37.625 16.1951 37.2475 16.8671 36.5755C17.5391 35.9035 17.9167 34.992 17.9167 34.0417ZM32.25 8.95836C32.25 8.008 31.8724 7.09657 31.2004 6.42456C30.5284 5.75256 29.617 5.37503 28.6666 5.37503C27.7163 5.37503 26.8048 5.75256 26.1328 6.42456C25.4608 7.09657 25.0833 8.008 25.0833 8.95836C25.0833 9.90872 25.4608 10.8202 26.1328 11.4922C26.8048 12.1642 27.7163 12.5417 28.6666 12.5417C29.617 12.5417 30.5284 12.1642 31.2004 11.4922C31.8724 10.8202 32.25 9.90872 32.25 8.95836ZM17.9167 8.95836C17.9167 8.008 17.5391 7.09657 16.8671 6.42456C16.1951 5.75256 15.2837 5.37503 14.3333 5.37503C13.383 5.37503 12.4715 5.75256 11.7995 6.42456C11.1275 7.09657 10.75 8.008 10.75 8.95836C10.75 9.90872 11.1275 10.8202 11.7995 11.4922C12.4715 12.1642 13.383 12.5417 14.3333 12.5417C15.2837 12.5417 16.1951 12.1642 16.8671 11.4922C17.5391 10.8202 17.9167 9.90872 17.9167 8.95836ZM32.25 34.0417C32.25 33.0913 31.8724 32.1799 31.2004 31.5079C30.5284 30.8359 29.617 30.4583 28.6666 30.4583C27.7163 30.4583 26.8048 30.8359 26.1328 31.5079C25.4608 32.1799 25.0833 33.0913 25.0833 34.0417C25.0833 34.992 25.4608 35.9035 26.1328 36.5755C26.8048 37.2475 27.7163 37.625 28.6666 37.625C29.617 37.625 30.5284 37.2475 31.2004 36.5755C31.8724 35.9035 32.25 34.992 32.25 34.0417Z" stroke="white" stroke-width="2" stroke-linecap="round" stroke-linejoin="round"/>
</svg>
