<svg width="16" height="16" viewBox="0 0 16 16" fill="none" xmlns="http://www.w3.org/2000/svg">
<path fill-rule="evenodd" clip-rule="evenodd" d="M15.9998 14.6657C15.9998 15.019 15.8595 15.3578 15.6097 15.6076C15.3599 15.8574 15.0211 15.9977 14.6678 15.9977H1.33357C1.15852 15.9979 0.985139 15.9636 0.823351 15.8968C0.661564 15.8299 0.51454 15.7318 0.390686 15.6081C0.266832 15.4844 0.168579 15.3375 0.101542 15.1758C0.0345048 15.0141 -1.13027e-07 14.8407 0 14.6657V1.33206C-1.13027e-07 1.157 0.0345048 0.983665 0.101542 0.821953C0.168579 0.660242 0.266832 0.513329 0.390686 0.389616C0.51454 0.265903 0.661564 0.167816 0.823351 0.100963C0.985139 0.0341098 1.15852 -0.000198067 1.33357 8.60138e-07H14.6669C15.0202 8.60138e-07 15.359 0.140342 15.6088 0.390152C15.8586 0.639962 15.9989 0.978776 15.9989 1.33206L15.9998 14.6657Z" fill="#EDAA00"/>
<path d="M8.94261 8.07337V5.20853L9.69069 5.03143V5.40652C9.69069 5.40652 9.88414 4.91275 10.3334 4.79802C10.4718 4.7632 10.5414 4.78409 10.5414 4.78409V5.51491C10.4068 5.51675 10.2738 5.5445 10.1496 5.59665C9.87233 5.70594 9.73307 5.9451 9.73307 6.30839V7.89021L8.94261 8.07337ZM5.00063 9.0049C5.00063 9.0049 4.87953 8.82326 4.87953 8.17781V6.7516L4.49444 6.84243V6.25541L4.87983 6.16459V5.52399L5.67513 5.33629V5.97538L6.23702 5.84217V6.42949L5.67513 6.56299V8.01615C5.67513 8.67643 5.85042 8.80328 5.85042 8.80328L5.00063 9.0049ZM6.31997 7.30077C6.31997 6.79126 6.39263 6.4198 6.54824 6.13462C6.73321 5.79615 7.03747 5.57576 7.48007 5.47494C8.35227 5.27665 8.66682 5.79312 8.65441 6.48519C8.65047 6.73253 8.65138 6.85332 8.65138 6.85332L7.11467 7.21449V7.23932C7.11467 7.7237 7.21639 7.95288 7.52276 7.88749C7.78736 7.83178 7.86092 7.66588 7.88181 7.46123C7.88544 7.42762 7.88665 7.34376 7.88665 7.34376L8.60687 7.1712C8.60687 7.1712 8.60869 7.23024 8.60687 7.29593C8.60021 7.57112 8.52029 8.2535 7.51973 8.48964C6.57215 8.71457 6.31906 8.13573 6.31906 7.30077H6.31997ZM7.51095 6.00837C7.25635 6.0662 7.12284 6.31596 7.11739 6.72981L7.89059 6.54574C7.8921 6.52697 7.8921 6.48519 7.8921 6.42101C7.89059 6.10888 7.79402 5.94419 7.51126 6.00837H7.51095ZM13.2315 5.62541C13.2013 4.75291 13.4277 4.06024 14.401 3.83924C15.0223 3.69816 15.2575 3.85922 15.3768 4.01513C15.4915 4.16408 15.5357 4.36479 15.5357 4.64604V4.69811L14.7734 4.87976V4.77349C14.7734 4.44048 14.6826 4.31333 14.4404 4.37388C14.1525 4.44623 14.0362 4.7193 14.0362 5.26303V5.51642C14.0362 6.06892 14.1119 6.32201 14.4434 6.25238C14.7316 6.19183 14.771 5.93995 14.7764 5.71835C14.7764 5.68353 14.7785 5.57212 14.7785 5.57212L15.5396 5.3929V5.51127C15.5375 6.23543 15.1558 6.69196 14.4401 6.85847C13.4553 7.08976 13.2621 6.5197 13.2318 5.62541H13.2315ZM10.5986 6.84666C10.5986 6.18306 10.9879 5.97326 11.5731 5.73137C12.099 5.51369 12.1102 5.40562 12.1126 5.21671C12.1153 5.05777 12.0418 4.92123 11.7796 4.98814C11.5389 5.04869 11.475 5.22367 11.4623 5.36293C11.4579 5.41184 11.4563 5.46097 11.4575 5.51006L10.7197 5.68414C10.7147 5.5371 10.7319 5.39014 10.7706 5.24819C10.8886 4.8513 11.2389 4.58428 11.8426 4.44472C12.6273 4.26307 12.8891 4.6082 12.8904 5.14405V6.41283C12.8904 7.02649 13.0042 7.1161 13.0042 7.1161L12.2797 7.28776C12.2397 7.20399 12.2071 7.11687 12.1822 7.0274C12.1822 7.0274 12.0239 7.42671 11.4772 7.55568C10.902 7.6907 10.5992 7.33529 10.5992 6.84697L10.5986 6.84666ZM12.1084 5.94086C11.9862 6.02648 11.8572 6.10192 11.7227 6.1664C11.4805 6.28478 11.3718 6.43009 11.3718 6.65412C11.3718 6.84818 11.4929 6.97593 11.7109 6.92144C11.9455 6.86271 12.1084 6.64383 12.1084 6.34018V5.94086ZM0.84339 11.013C0.760715 11.0128 0.679615 10.9904 0.608627 10.948C0.537638 10.9056 0.479387 10.8449 0.440004 10.7722C0.400622 10.6995 0.381564 10.6175 0.384837 10.5349C0.388111 10.4523 0.413595 10.3721 0.458607 10.3028L0.46345 10.2964L0.47223 10.2943L1.55301 10.0391V10.8604L1.53606 10.8643C1.29084 10.9234 0.997788 10.9903 0.93724 11.0027C0.906237 11.0096 0.874555 11.0131 0.842785 11.013H0.84339ZM0.84339 12.0638C0.72193 12.0638 0.605421 12.0157 0.519394 11.9299C0.433367 11.8442 0.384836 11.7278 0.384435 11.6064C0.383951 11.5177 0.409763 11.4309 0.458607 11.3569L0.46345 11.3487L0.47223 11.3469L1.55301 11.0917V11.913L1.53606 11.9176C1.29084 11.9763 0.997788 12.0444 0.93724 12.0562C0.906125 12.0623 0.87449 12.0654 0.842785 12.0653L0.84339 12.0638ZM0.84339 13.1164C0.72164 13.1163 0.604904 13.0679 0.518842 12.9818C0.43278 12.8957 0.384435 12.7789 0.384435 12.6572C0.383951 12.5685 0.409763 12.4817 0.458607 12.4077L0.46345 12.3992L1.55332 12.1425V12.9638L1.53636 12.9681C1.27752 13.0304 0.989614 13.0955 0.937543 13.1073C0.906406 13.1133 0.874786 13.1163 0.843088 13.1164" fill="#231F20"/>
<path d="M0.716239 10.0064L0.715937 5.41106L1.55362 5.21307V9.80807L0.716239 10.0064Z" fill="#231F20"/>
<path d="M2.80303 9.61552C2.79976 9.48059 2.74387 9.35228 2.64728 9.258C2.55069 9.16373 2.42107 9.11095 2.2861 9.11095C2.15113 9.11095 2.0215 9.16373 1.92492 9.258C1.82833 9.35228 1.77243 9.48059 1.76917 9.61552V13.9108C1.76981 14.2817 1.91743 14.6373 2.17969 14.8996C2.44196 15.162 2.7975 15.3097 3.16844 15.3104C3.55958 15.3104 4.63128 15.3086 4.63128 15.3086V11.5186C4.63148 11.4071 4.60413 11.2974 4.55169 11.1991C4.49924 11.1008 4.42331 11.017 4.33066 10.9551L3.02645 10.0693V12.0807C3.02724 12.0958 3.02495 12.1109 3.01973 12.125C3.01451 12.1392 3.00646 12.1521 2.99608 12.163C2.9857 12.174 2.97321 12.1827 2.95935 12.1886C2.9455 12.1946 2.93058 12.1976 2.9155 12.1976C2.90042 12.1976 2.8855 12.1946 2.87164 12.1886C2.85779 12.1827 2.84529 12.174 2.83491 12.163C2.82453 12.1521 2.81648 12.1392 2.81126 12.125C2.80604 12.1109 2.80375 12.0958 2.80454 12.0807C2.80454 12.0592 2.80182 9.88103 2.80182 9.61552H2.80303ZM3.50115 6.41101C3.34276 6.44762 3.19414 6.51795 3.0654 6.61721C2.93667 6.71648 2.83086 6.84234 2.7552 6.98622V6.66441L2.00107 6.84302V8.90559C2.13334 8.8534 2.27746 8.83876 2.41753 8.86328C2.5576 8.8878 2.68818 8.95053 2.79485 9.04455V7.71249C2.79485 7.39371 2.9541 7.1388 3.18055 7.08885C3.35159 7.05131 3.49388 7.11246 3.49388 7.41611V9.3594L4.28797 9.17291V7.11761C4.28797 6.61899 4.09664 6.26993 3.50085 6.41101H3.50115ZM15.0462 3.46989C14.949 3.46994 14.854 3.44119 14.7731 3.38725C14.6923 3.33331 14.6293 3.25661 14.592 3.16685C14.5548 3.07709 14.545 2.9783 14.5639 2.88298C14.5828 2.78765 14.6295 2.70007 14.6982 2.63132C14.7669 2.56256 14.8544 2.51571 14.9497 2.49669C15.045 2.47767 15.1438 2.48734 15.2336 2.52447C15.3234 2.56161 15.4002 2.62454 15.4542 2.70531C15.5083 2.78608 15.5372 2.88105 15.5372 2.97823C15.537 3.10837 15.4852 3.23309 15.3931 3.32508C15.3011 3.41707 15.1763 3.46882 15.0462 3.46898V3.46989ZM15.0462 2.54834C14.9612 2.54834 14.8782 2.57353 14.8075 2.62072C14.7369 2.66791 14.6818 2.73499 14.6493 2.81346C14.6168 2.89194 14.6083 2.9783 14.6248 3.06163C14.6414 3.14495 14.6822 3.2215 14.7423 3.28159C14.8023 3.34168 14.8789 3.38262 14.9622 3.39923C15.0455 3.41584 15.1319 3.40737 15.2104 3.37491C15.2889 3.34244 15.356 3.28742 15.4032 3.21682C15.4505 3.14621 15.4757 3.06319 15.4758 2.97823C15.4756 2.86432 15.4303 2.75512 15.3498 2.67454C15.2693 2.59396 15.1601 2.54858 15.0462 2.54834Z" fill="#231F20"/>
<path d="M14.8673 2.6861H15.0792C15.1636 2.6861 15.2305 2.72818 15.2305 2.83989C15.2305 2.91769 15.196 2.97764 15.1306 2.98793C15.1912 2.99398 15.2215 3.02668 15.2242 3.11114C15.2242 3.14899 15.226 3.19621 15.2278 3.23224C15.2278 3.24253 15.2304 3.25265 15.2354 3.26166C15.2404 3.27066 15.2476 3.27825 15.2563 3.28371H15.1485C15.1377 3.26818 15.1319 3.24966 15.1322 3.23073C15.1285 3.1947 15.1291 3.1611 15.1279 3.1175C15.1279 3.05211 15.1064 3.02335 15.0404 3.02335H14.9644V3.28371H14.8685L14.8673 2.6861ZM15.0395 2.95311C15.0525 2.95432 15.0657 2.95261 15.0779 2.94811C15.0902 2.94361 15.1013 2.93643 15.1105 2.9271C15.1197 2.91776 15.1266 2.90651 15.1309 2.89414C15.1352 2.88178 15.1366 2.86863 15.1352 2.85563C15.1352 2.79175 15.1079 2.75845 15.0444 2.75845H14.9644V2.95311H15.0395Z" fill="#231F20"/>
</svg>
