<svg width="892" height="230" viewBox="0 0 892 230" fill="none" xmlns="http://www.w3.org/2000/svg">
<path d="M0.118098 139.713C23.9611 142.547 74.2482 142.414 84.6524 119.205C97.6577 90.1929 81.151 12.6614 103.66 11.1608C130.671 9.36006 117.666 228.749 127.17 228.749C134.173 229.249 132.818 206.181 141.175 207.24C176.69 211.742 258.223 215.244 272.729 201.238C282.215 192.079 272.729 112.202 287.735 100.697C296.238 88.1921 340.516 87.8458 383.274 88.1921C435.795 88.6173 444.599 71.9855 447.8 37.1713C451.001 2.35722 542.505 11.661 587.857 20.6646C628.707 31.1689 715.709 47.8757 736.917 30.6687C740.085 28.3344 746.821 21.7651 748.422 14.162C750.423 4.65815 756.425 -3.3451 773.932 3.65774C787.938 9.26002 858.466 9.32671 891.98 8.65977" stroke="black" stroke-width="2"/>
</svg>
