<svg width="26" height="26" viewBox="0 0 26 26" fill="none" xmlns="http://www.w3.org/2000/svg">
<path d="M21.2001 5.45611L20.4862 6.17001C22.1897 8.03287 23.1343 10.4658 23.1343 12.9901C23.1343 15.5144 22.1897 17.9473 20.4862 19.8101L21.2001 20.524C23.0945 18.4692 24.1463 15.7766 24.1463 12.9817C24.1463 10.1869 23.0945 7.49432 21.2001 5.43945V5.45611ZM6.18691 5.51798C8.04977 3.81451 10.4827 2.86985 13.007 2.86985C15.5313 2.86985 17.9642 3.81451 19.8271 5.51798L20.5409 4.80409C18.4861 2.90965 15.7935 1.85788 12.9987 1.85788C10.2038 1.85788 7.51123 2.90965 5.45636 4.80409L6.18691 5.51798ZM5.51823 19.8173C3.81678 17.9548 2.87336 15.5234 2.87336 13.0008C2.87336 10.4782 3.81678 8.04673 5.51823 6.18428L4.80433 5.47039C2.90989 7.52526 1.85812 10.2178 1.85812 13.0127C1.85812 15.8076 2.90989 18.5001 4.80433 20.555L5.51823 19.8173ZM19.8175 20.4764C17.9547 22.1799 15.5218 23.1246 12.9975 23.1246C10.4732 23.1246 8.04025 22.1799 6.17739 20.4764L5.4635 21.1903C7.51837 23.0848 10.2109 24.1366 13.0058 24.1366C15.8007 24.1366 18.4932 23.0848 20.5481 21.1903L19.8175 20.4764ZM17.5069 10.6176C17.3641 9.12791 16.0791 8.62818 14.4538 8.47588V6.42463H13.1974V8.43781H12.1931V6.42463H10.9462V8.49016H8.3976V9.83466C8.3976 9.83466 9.32566 9.81801 9.31139 9.83466C9.47872 9.81625 9.64667 9.86352 9.77984 9.96651C9.91301 10.0695 10.001 10.2202 10.0253 10.3867V16.0408C10.0217 16.0995 10.0064 16.157 9.98023 16.2097C9.95407 16.2624 9.9176 16.3094 9.87298 16.3478C9.8292 16.3869 9.77797 16.4167 9.72235 16.4356C9.66673 16.4544 9.60789 16.4617 9.54935 16.4572C9.56601 16.4715 8.63557 16.4572 8.63557 16.4572L8.3976 17.9588H10.9224V20.0576H12.1789V17.9897H13.1831V20.0481H14.4419V17.9731C16.5646 17.8446 18.0447 17.321 18.2303 15.334C18.3802 13.7349 17.6283 13.021 16.4265 12.7331C17.1571 12.3737 17.6092 11.7074 17.5069 10.6176ZM15.746 15.0865C15.746 16.6476 13.0712 16.4691 12.2193 16.4691V13.6992C13.0712 13.7016 15.746 13.4565 15.746 15.0865ZM15.1629 11.1839C15.1629 12.6117 12.9308 12.438 12.2217 12.438V9.92033C12.9308 9.92033 15.1629 9.69664 15.1629 11.1839Z" fill="white"/>
<path d="M12.9976 26C5.81824 25.9988 0 20.1782 0 12.9988C0 5.82062 5.82062 0 12.9988 0C20.1782 0 25.9988 5.81824 26 12.9976C26.0003 14.7052 25.6642 16.3961 25.0109 17.9738C24.3576 19.5515 23.3999 20.985 22.1924 22.1924C20.985 23.3999 19.5515 24.3576 17.9738 25.0109C16.3961 25.6642 14.7052 26.0003 12.9976 26ZM12.9976 1.01373C6.3834 1.01849 1.02563 6.3834 1.02801 12.9976C1.03039 19.6119 6.39411 24.972 13.0072 24.972C19.6214 24.972 24.9839 19.6119 24.9863 12.9976C24.9869 11.4233 24.6772 9.8643 24.0749 8.40975C23.4726 6.95521 22.5894 5.63365 21.476 4.52066C20.3626 3.40766 19.0407 2.52506 17.5859 1.92331C16.1311 1.32156 14.572 1.01248 12.9976 1.01373Z" fill="white"/>
</svg>
