<svg width="81" height="23" viewBox="0 0 81 23" fill="none" xmlns="http://www.w3.org/2000/svg">
<rect x="0.5" y="0.5" width="35" height="22" rx="2.5" fill="white"/>
<path d="M24.3742 7.54221C23.9308 7.37363 23.2275 7.1875 22.3579 7.1875C20.138 7.1875 18.5748 8.32195 18.5652 9.94388C18.5467 11.1405 19.6844 11.8052 20.5353 12.2042C21.405 12.6119 21.7007 12.878 21.7007 13.2414C21.6918 13.7996 20.9979 14.0569 20.3507 14.0569C19.4532 14.0569 18.9723 13.9242 18.2415 13.6137L17.9455 13.4806L17.6309 15.3508C18.1582 15.581 19.1295 15.7853 20.138 15.7943C22.4967 15.7943 24.0323 14.6774 24.0505 12.9489C24.0595 12.0005 23.4587 11.2738 22.1636 10.6799C21.3774 10.2987 20.8959 10.0417 20.8959 9.65161C20.9051 9.29702 21.3031 8.93383 22.1906 8.93383C22.9214 8.91604 23.4584 9.08438 23.8651 9.25284L24.0685 9.34131L24.3742 7.54221Z" fill="#3362AB"/>
<path d="M16.2252 15.6701H13.9772L15.3833 7.33852H17.6311L16.2252 15.6701Z" fill="#3362AB"/>
<path fill-rule="evenodd" clip-rule="evenodd" d="M30.1367 7.33852H28.3979C27.8617 7.33852 27.4543 7.48908 27.223 8.0298L23.8839 15.67H26.2426C26.2426 15.67 26.631 14.6417 26.7144 14.4202H29.6006C29.6651 14.7127 29.8688 15.67 29.8688 15.67H31.9502L30.1367 7.33852ZM27.3619 12.7185C27.547 12.2399 28.2593 10.3874 28.2593 10.3874C28.2556 10.3945 28.2846 10.3176 28.3278 10.2028L28.3283 10.2014L28.3286 10.2005C28.3932 10.0291 28.489 9.77461 28.5551 9.58976L28.7122 10.3077C28.7122 10.3077 29.1379 12.302 29.2303 12.7185H27.3619Z" fill="#3362AB"/>
<path d="M12.0997 7.33852L9.89818 13.0199L9.65761 11.8676L9.65739 11.8669L8.87138 8.03887C8.74193 7.50675 8.34415 7.35608 7.85392 7.33852H4.2372L4.2002 7.50687C5.0823 7.72304 5.87126 8.03454 6.56256 8.42186L8.56615 15.6613H10.9433L14.4767 7.33852H12.0997Z" fill="#3362AB"/>
<rect x="0.5" y="0.5" width="35" height="22" rx="2.5" stroke="#CCCCCC"/>
<rect x="46.5" y="0.5" width="33.5" height="22" rx="1.5" fill="white"/>
<path d="M74.75 11.4198C74.75 15.3486 71.5715 18.5271 67.6427 18.5271C65.9844 18.5271 64.4642 17.9546 63.2599 17.0069C64.9183 15.7039 65.9646 13.6902 65.9646 11.4198C65.9646 9.14941 64.8985 7.13568 63.2599 5.83267C64.4642 4.88503 65.9844 4.3125 67.6427 4.3125C71.5715 4.3125 74.75 7.51078 74.75 11.4198Z" fill="#F79E1B"/>
<path d="M63.2599 5.83267C63.2599 5.83268 63.2599 5.83267 63.2599 5.83267C64.8985 7.13568 65.9646 9.14941 65.9646 11.4198C65.9646 13.6902 64.9183 15.7039 63.2599 17.0069L63.2401 17.0069C61.6015 15.7237 60.5354 13.6902 60.5354 11.4198C60.5354 9.14945 61.6015 7.13572 63.2401 5.83271C63.2401 5.8327 63.2401 5.83273 63.2401 5.83271L63.2599 5.83267Z" fill="#FF5F00"/>
<path d="M60.5354 11.4198C60.5354 9.14945 61.6015 7.13572 63.2401 5.83271C62.0358 4.88508 60.5157 4.31253 58.8573 4.31253C54.9285 4.31253 51.75 7.49107 51.75 11.4198C51.75 15.3486 54.9285 18.5271 58.8573 18.5271C60.5157 18.5271 62.0358 17.9546 63.2401 17.0069C61.6015 15.7237 60.5354 13.6902 60.5354 11.4198Z" fill="#EB001B"/>
<rect x="46.5" y="0.5" width="33.5" height="22" rx="1.5" stroke="#CCCCCC"/>
</svg>
