<svg width="21" height="21" viewBox="0 0 21 21" fill="none" xmlns="http://www.w3.org/2000/svg">
<path d="M10.5 21C16.299 21 21 16.299 21 10.5C21 4.70101 16.299 0 10.5 0C4.70101 0 0 4.70101 0 10.5C0 14.7601 2.53702 18.4276 6.18261 20.0742C6.1875 19.9605 6.19301 19.8564 6.19773 19.7671C6.20416 19.6453 6.20914 19.5511 6.20914 19.4982C6.20914 19.1827 6.42368 17.6178 6.42368 17.6178L7.73618 12.229C7.53426 11.9008 7.38281 11.2067 7.38281 10.6767C7.38281 8.22836 8.7458 7.69831 9.57873 7.69831C10.6388 7.69831 10.8786 8.84675 10.8786 9.6923C10.8786 10.1396 10.6466 10.8396 10.4079 11.56C10.1548 12.3236 9.89423 13.11 9.89423 13.6424C9.89423 14.6773 10.9165 15.1947 11.6232 15.1947C13.491 15.1947 15.2073 12.8473 15.2073 10.5C15.2073 8.15264 14.1094 5.31309 10.5126 5.31309C6.91587 5.31309 5.30048 8.05167 5.30048 10.1466C5.30048 11.5601 5.83053 12.5949 6.09556 12.7716C6.17128 12.8389 6.3 13.0467 6.20914 13.3395C6.11827 13.6323 5.95253 14.286 5.88101 14.5763C5.8726 14.6436 5.79267 14.758 5.54027 14.6773C5.22476 14.5763 3.21815 13.3143 3.21815 10.1466C3.21815 6.97896 5.70433 3.29386 10.5126 3.29386C15.3209 3.29386 17.7819 6.52463 17.7819 10.5C17.7819 14.4754 14.5637 17.012 12.1154 17.012C10.1567 17.012 9.38942 16.137 9.2506 15.6995L8.50601 18.5391C8.3302 19.0101 8.00222 19.8568 7.59778 20.5938C8.51952 20.8583 9.49321 21 10.5 21Z" fill="#BB0F23"/>
</svg>
